<?xml version="1.0" encoding="utf-8"?>
<!-- Generator: Adobe Illustrator 22.0.1, SVG Export Plug-In . SVG Version: 6.00 Build 0)  -->
<svg version="1.1" id="Layer_1" xmlns="http://www.w3.org/2000/svg" xmlns:xlink="http://www.w3.org/1999/xlink" x="0px" y="0px"
	 viewBox="0 0 293 322" style="enable-background:new 0 0 293 322;" xml:space="preserve">
<style type="text/css">
	.st0{fill:#FFFFFF;}
</style>
<title>Bene White</title>
<path class="st0" d="M111.1,319.7c-18.5,0-33.5-15-33.5-33.5c0-18.5,15-33.5,33.5-33.5c19.1,0,30.9,12.8,30.9,33.5v5.1H88.4
	c2.8,12.6,15.2,20.5,27.8,17.8c6.2-1.4,11.7-5.3,15-10.7l8.6,5.2C133.7,313.7,122.9,319.8,111.1,319.7z M88.4,281.3h43.4
	c-1.1-8.4-5.5-18.4-20.5-18.4C100.1,263,90.7,270.5,88.4,281.3z"/>
<path class="st0" d="M261.5,319.7c-18.5,0-33.5-15-33.5-33.5c0-18.5,15-33.5,33.5-33.5c19.1,0,30.9,12.8,30.9,33.5v5.1h-53.7
	c2.8,12.6,15.2,20.5,27.8,17.8c6.2-1.4,11.7-5.3,15-10.7l8.6,5.2C284.1,313.7,273.3,319.8,261.5,319.7z M238.7,281.3h43.4
	c-1.1-8.4-5.5-18.4-20.5-18.4C250.5,263,241.1,270.5,238.7,281.3z"/>
<path class="st0" d="M62.9,253.8c0,12.1-6.6,15.9-13.1,19.1c9.8,3.3,17.7,8.5,17.7,21.2c0,15.9-11.9,26.4-29.9,26.4H0.9v-89.7H36
	C52.3,230.8,62.9,239.8,62.9,253.8z M53.5,255.3c0-9.2-6.5-16.3-18.3-16.3H11.5v28.2h23C42.2,267.2,53.5,266.2,53.5,255.3
	L53.5,255.3z M58.1,293.4c0-10.1-7.5-15-21.9-15H11.5v32.8h26.3C50.3,311.2,58.1,303.9,58.1,293.4L58.1,293.4z"/>
<path class="st0" d="M188.1,252.6c-8.3,0-17.4,2.5-22.6,10.1v-11.7h-10.8v68h10.8V281c0-11,10.7-18.7,21.5-18.7
	c12,0,19.4,8.4,19.4,21.7v35.1h10.5V284C216.7,264.8,207.7,252.6,188.1,252.6z"/>
<g id="Layer_2_1_">
	<g id="Layer_1-2">
		<path class="st0" d="M150.6,124.4l47.1,44.9c-5.8,4.4-12.1,7.9-18.9,10.5l-28.3-27V124.4z"/>
		<path class="st0" d="M150.6,86.5l65.8,62.7c-3.8,5.9-8.4,11.3-13.7,16l-52.1-49.7V86.5z"/>
		<path class="st0" d="M171.9,182.2c-6.8,2-14,2.9-21.1,2.9h-0.2v-23.3L171.9,182.2z"/>
		<path class="st0" d="M150.6,1.9c0,3.5-0.1,75.8-0.1,75.8l69.1,66c5.8-11,9.9-27.1,9.1-36.7C228.7,59.6,180.8,32.5,150.6,1.9z"/>
		<path class="st0" d="M144.8,124.4l-47.1,44.9c5.8,4.4,12.1,7.9,18.9,10.5l28.3-27V124.4z"/>
		<path class="st0" d="M144.8,86.5L79,149.2c3.8,5.9,8.4,11.3,13.7,16l52.1-49.7C144.8,115.5,144.8,86.5,144.8,86.5z"/>
		<path class="st0" d="M123.4,182.2c6.8,2,14,2.9,21.1,2.9h0.2v-23.3L123.4,182.2z"/>
		<path class="st0" d="M144.7,1.9c0,3.5,0.1,75.8,0.1,75.8l-69.1,66c-5.8-11-9.9-27.1-9.1-36.7C66.5,59.6,114.5,32.5,144.7,1.9z"/>
	</g>
</g>
</svg>
