<svg xmlns="http://www.w3.org/2000/svg" viewBox="0 0 427.73 155.54"><defs><style>.cls-1{fill:#ffb359;}.cls-2{fill:#ff9012;}</style></defs><title>Bene Full Color</title><g id="Layer_2" data-name="Layer 2"><g id="Layer_1-2" data-name="Layer 1"><path class="cls-1" d="M71.33,104l40,38.09a66.28,66.28,0,0,1-16,8.91l-24-22.9Z"/><path class="cls-1" d="M71.33,71.85,127.11,125a66.7,66.7,0,0,1-11.6,13.6L71.33,96.43Z"/><path class="cls-1" d="M89.46,153a66.39,66.39,0,0,1-17.91,2.54h-.21V135.7Z"/><path class="cls-1" d="M71.4,0c0,3-.07,64.26-.07,64.26l58.6,56c4.93-9.28,8.43-23,7.73-31.09C137.66,49,97,26,71.4,0Z"/><path class="cls-2" d="M66.41,104l-40,38.09a66.28,66.28,0,0,0,16,8.91l24-22.9Z"/><path class="cls-2" d="M66.41,71.85,10.64,125a66.7,66.7,0,0,0,11.6,13.6L66.41,96.43Z"/><path class="cls-2" d="M48.29,153a66.39,66.39,0,0,0,17.91,2.54h.21V135.7Z"/><path class="cls-2" d="M66.34,0c0,3,.07,64.26.07,64.26l-58.6,56C2.89,111-.61,97.28.09,89.14.09,49,40.79,26,66.34,0Z"/><path class="cls-2" d="M273.9,120.53a28.37,28.37,0,1,1,0-56.74c16.18,0,26.23,10.87,26.23,28.37v4.27H254.54a19.83,19.83,0,0,0,36.32,6l7.31,4.43A28.18,28.18,0,0,1,273.9,120.53ZM254.54,87.89h36.77c-.94-7.11-4.73-15.55-17.41-15.55A19.86,19.86,0,0,0,254.54,87.89Z"/><path class="cls-2" d="M401.5,120.53a28.37,28.37,0,1,1,0-56.74c16.18,0,26.23,10.87,26.23,28.37v4.27H382.14a19.83,19.83,0,0,0,36.32,6l7.31,4.43A28.18,28.18,0,0,1,401.5,120.53ZM382.14,87.89h36.77c-.94-7.11-4.73-15.55-17.41-15.55A19.86,19.86,0,0,0,382.14,87.89Z"/><path class="cls-2" d="M232.92,64.65c0,10.27-5.59,13.51-11.09,16.19,8.29,2.79,15,7.15,15,18,0,13.5-10.09,22.42-25.38,22.42H180.36V45.12h29.78C223.93,45.12,232.92,52.71,232.92,64.65Zm-8,1.23c0-7.81-5.5-13.83-15.49-13.83H189.33V76h19.52C215.36,76,224.93,75.14,224.93,65.88Zm3.9,32.37c0-8.59-6.4-12.74-18.59-12.74H189.33v27.8h22.31C222.23,113.31,228.83,107.07,228.83,98.25Z"/><path class="cls-2" d="M339.13,63.61c-7,0-14.8,2.07-19.16,8.57V62.29h-9.21V120H320V87.71c0-9.29,9.07-15.89,18.16-15.89,10.17,0,16.45,7.14,16.45,18.38V120h8.92V90.2C363.5,73.89,355.82,63.61,339.13,63.61Z"/></g></g></svg>