<svg xmlns="http://www.w3.org/2000/svg" viewBox="0 0 137.75 155.54"><defs><style>.cls-1{fill:#fff;}</style></defs><title>Bene Drop White</title><g id="Layer_2" data-name="Layer 2"><g id="Layer_1-2" data-name="Layer 1"><path class="cls-1" d="M71.33,104l40,38.09a66.28,66.28,0,0,1-16,8.91l-24-22.9Z"/><path class="cls-1" d="M71.33,71.85,127.11,125a66.7,66.7,0,0,1-11.6,13.6L71.33,96.43Z"/><path class="cls-1" d="M89.46,153a66.39,66.39,0,0,1-17.91,2.54h-.21V135.7Z"/><path class="cls-1" d="M71.4,0c0,3-.07,64.26-.07,64.26l58.6,56c4.93-9.28,8.43-23,7.73-31.09C137.66,49,97,26,71.4,0Z"/><path class="cls-1" d="M66.41,104l-40,38.09a66.28,66.28,0,0,0,16,8.91l24-22.9Z"/><path class="cls-1" d="M66.41,71.85,10.64,125a66.7,66.7,0,0,0,11.6,13.6L66.41,96.43Z"/><path class="cls-1" d="M48.29,153a66.39,66.39,0,0,0,17.91,2.54h.21V135.7Z"/><path class="cls-1" d="M66.34,0c0,3,.07,64.26.07,64.26l-58.6,56C2.89,111-.61,97.28.09,89.14.09,49,40.79,26,66.34,0Z"/></g></g></svg>
