<svg height="84" viewBox="0 0 76 84" width="76" xmlns="http://www.w3.org/2000/svg">
  <g fill="none" fill-rule="evenodd">
    <g fill="#ffb259">
      <path d="M40.5 55.9643312l20.8955224 20.3847134c-2.5074627 1.9796178-5.3283582 3.5847134-8.358209 4.7617834L40.5 68.8585987zM40.5 38.7898089l29.1492537 28.4636943c-1.6716418 2.6751592-3.761194 5.1363057-6.0597015 7.2764331L40.5 51.9515924zM49.95522388 82.1808917c-2.97761194.856051-6.1119403 1.3375796-9.35074627 1.3375796h-.0522388H40.5V72.9248408zM40.55223881.32101911C40.55223881 1.92611465 40.5 34.7235669 40.5 34.7235669l30.6119403 29.9617834C73.6716418 59.7095541 75.5 52.3796178 75.1343284 48.0458599c0-21.5082803-21.2611941-33.8140128-34.58208959-47.72484079z"/>
    </g>
    <g fill="#ff9015">
      <path d="M37.0102941 55.9643312L15.2455882 76.3490446c2.6117647 1.9796178 5.55 3.5847134 8.7058824 4.7617834l13.0588235-12.2522293zM37.0102941 38.7898089L6.64852941 67.2535032c1.74117647 2.6751592 3.91764709 5.1363057 6.31176469 7.2764331l24.05-22.5783439zM27.1617647 82.1808917c3.1014706.856051 6.3661765 1.3375796 9.7397059 1.3375796h.1088235V72.9248408zM36.9558824.32101911c0 1.60509554.0544117 34.40254779.0544117 34.40254779L5.125 64.6853503C2.45882353 59.7095541.55441176 52.3796178.93529412 48.0458599c0-21.5082803 22.14558828-33.8140128 36.02058828-47.72484079z"/>
    </g>
  </g>
</svg>
