<?xml version="1.0" encoding="UTF-8" standalone="no"?>
<svg width="79px" height="79px" viewBox="0 0 79 79" version="1.1" xmlns="http://www.w3.org/2000/svg" xmlns:xlink="http://www.w3.org/1999/xlink" xmlns:sketch="http://www.bohemiancoding.com/sketch/ns">
    <!-- Generator: Sketch 3.3.1 (12002) - http://www.bohemiancoding.com/sketch -->
    <title>icon-open-source</title>
    <desc>Created with Sketch.</desc>
    <defs></defs>
    <g id="Welcome" stroke="none" stroke-width="1" fill="none" fill-rule="evenodd" sketch:type="MSPage">
        <g id="Desktop-HD" sketch:type="MSArtboardGroup" transform="translate(-596.000000, -1963.000000)">
            <g id="1-copy-2" sketch:type="MSLayerGroup" transform="translate(-61.000000, 837.000000)">
                <g id="Content-Strategy-&amp;-M-+-Rectangle-2-Copy-4" transform="translate(330.000000, 1126.000000)" sketch:type="MSShapeGroup">
                    <g id="icon-open-source" transform="translate(327.000000, 0.000000)">
                        <circle id="Oval-1" fill="#F58026" cx="39.5" cy="39.5" r="39.5"></circle>
                        <g id="Imported-Layers" transform="translate(16.000000, 18.000000)" fill="#FFFFFF">
                            <path d="M23.8369412,32.1910588 L14.4169412,41.5715294 L14.0357647,41.9512941 L13.5127059,41.8115294 L10.9094118,41.1176471 L8.30611765,40.4230588 L7.84094118,40.2988235 L7.716,39.8357647 L7.01858824,37.2423529 L6.31976471,34.6517647 L6.18,34.1294118 L6.56117647,33.7482353 L17.9647059,22.3990588 L19.2889412,23.7169412 L8.268,34.6898824 L8.82494118,36.7616471 L9.36705882,38.7790588 L11.3915294,39.3197647 L13.4738824,39.8745882 L22.5134118,30.8738824 L23.8369412,32.1910588" id="Fill-1"></path>
                            <path d="M13.068,10.1265882 L13.3927059,12.8414118 L24.5392941,23.9385882 C25.2127059,23.5207059 25.9849412,23.3096471 26.7508235,23.3096471 C27.8174118,23.3096471 28.8875294,23.7162353 29.7014118,24.5272941 L29.7049412,24.5237647 L40.5381176,35.3131765 L40.5381176,35.3167059 C41.3484706,36.1235294 41.7536471,37.1858824 41.7536471,38.2510588 L41.7571765,38.2510588 C41.7571765,39.3162353 41.3512941,40.3814118 40.5381176,41.1882353 L40.5381176,41.1910588 C39.7242353,41.9985882 38.6541176,42.4051765 37.5875294,42.4051765 L37.5875294,42.3995294 C36.5174118,42.3995294 35.4501176,41.9964706 34.6397647,41.1910588 L34.6362353,41.1910588 L34.6334118,41.1882353 L23.8009412,30.4023529 C22.9870588,29.5948235 22.5811765,28.5268235 22.5811765,27.4644706 C22.5811765,26.6992941 22.7908235,25.9305882 23.2122353,25.26 L12.0670588,14.1649412 L9.34023529,13.8388235 L6.28658824,13.4767059 L5.86447059,13.4265882 L5.62376471,13.0764706 L3.36988235,9.81247059 L0.679764706,5.91035294 L2.89129412,3.708 L4.55294118,2.05270588 L5.10282353,1.50705882 L5.74376471,1.94329412 L9.024,4.18658824 L12.3,6.42635294 L12.6550588,6.66988235 L12.7044706,7.08776471 L13.068,10.1265882 L13.068,10.1265882 Z M11.4296471,12.2096471 L10.8917647,7.72588235 L7.96588235,5.72611765 L5.32870588,3.92188235 L3.10870588,6.13623529 L4.91858824,8.75929412 L6.92752941,11.6731765 L9.55905882,11.9851765 L11.4296471,12.2096471 L11.4296471,12.2096471 Z M24.4567059,27.4644706 C24.4567059,28.0524706 24.6825882,28.6362353 25.1272941,29.0816471 L35.9604706,39.8689412 L35.9632941,39.8689412 L35.9604706,39.8717647 C36.4065882,40.3164706 36.9974118,40.5388235 37.5875294,40.5388235 L37.5875294,40.536 C38.1741176,40.536 38.7642353,40.3129412 39.2089412,39.8689412 L39.2117647,39.8689412 C39.6585882,39.4235294 39.8788235,38.8390588 39.8788235,38.2517647 L39.8851765,38.2517647 C39.8851765,37.6665882 39.6614118,37.08 39.2145882,36.6310588 L39.2117647,36.6338824 L28.3778824,25.8444706 L28.3778824,25.8416471 C27.9338824,25.4018824 27.3437647,25.1788235 26.7515294,25.1788235 C26.1614118,25.1788235 25.572,25.4018824 25.1244706,25.8444706 L25.128,25.8444706 C24.6818824,26.2898824 24.4567059,26.8771765 24.4567059,27.4644706 L24.4567059,27.4644706 Z" id="Fill-2"></path>
                            <path d="M25.3312941,15.0642353 L23.928,9.84705882 L23.7861176,9.32823529 L24.168,8.94847059 L28.1844706,4.95176471 L32.1952941,0.955058824 L32.5771765,0.575294118 L33.1016471,0.715058824 L38.5856471,2.17694118 L40.3207059,2.64 L41.8877647,3.05858824 L40.7407059,4.19788235 L33.096,11.8122353 L33.8025882,14.4494118 L35.0985882,14.7938824 L36.4489412,15.1531765 L45.2442353,6.40023529 L45.6635294,7.95741176 L47.7388235,15.6698824 L47.3569412,16.0461176 L43.3418824,20.0428235 L39.3275294,24.0437647 L38.9463529,24.4228235 L38.4254118,24.2809412 L33.1856471,22.8832941 L31.5014118,24.5625882 L30.1750588,23.2425882 L32.6223529,20.8087059 L32.6223529,20.8058824 L38.3830588,22.3432941 L42.0190588,18.7249412 L45.6515294,15.1087059 L44.3223529,10.1682353 L44.2778824,9.99882353 L37.3934118,16.8536471 L37.0115294,17.2327059 L36.4905882,17.0936471 L34.6150588,16.5917647 L32.7409412,16.0934118 L32.2764706,15.9691765 L32.1508235,15.5061176 L31.6503529,13.6397647 L31.1470588,11.7734118 L31.0065882,11.2538824 L38.2722353,4.02 L38.1028235,3.97552941 L33.1404706,2.652 L25.8748235,9.88658824 L27.4185882,15.6254118 L27.4157647,15.6254118 L22.8621176,20.1592941 L21.5392941,18.8385882 L25.3312941,15.0642353" id="Fill-3"></path>
                        </g>
                    </g>
                </g>
            </g>
        </g>
    </g>
</svg>