<?xml version="1.0" encoding="utf-8"?>
<!-- Generator: Adobe Illustrator 21.0.2, SVG Export Plug-In . SVG Version: 6.00 Build 0)  -->
<svg version="1.1" id="Layer_1" xmlns="http://www.w3.org/2000/svg" xmlns:xlink="http://www.w3.org/1999/xlink" x="0px" y="0px"
	 viewBox="0 0 55 85" style="enable-background:new 0 0 55 85;" xml:space="preserve">
<style type="text/css">
	.st0{fill:#FFFFFE;}
</style>
<g>
	<g>
		<g>
			<path class="st0" d="M7.9,3C7.8,2.8,7.6,2.6,7.4,2.5C7.2,2.3,7,2.2,6.8,2.1C6.6,2,6.3,2,6.1,2C5.6,2,5.2,2.1,4.9,2.3
				C4.5,2.4,4.3,2.7,4.1,3C3.9,3.3,3.7,3.6,3.6,4C3.5,4.4,3.5,4.8,3.5,5.2c0,0.4,0,0.8,0.1,1.2c0.1,0.4,0.2,0.7,0.4,1
				C4.3,7.7,4.5,8,4.9,8.1c0.3,0.2,0.7,0.3,1.2,0.3c0.6,0,1.1-0.2,1.5-0.6c0.4-0.4,0.6-0.9,0.7-1.5h2C10.2,6.9,10,7.4,9.8,7.9
				C9.6,8.4,9.3,8.8,8.9,9.1C8.6,9.4,8.2,9.7,7.7,9.9c-0.5,0.2-1,0.3-1.6,0.3c-0.7,0-1.4-0.1-2-0.4C3.5,9.5,3,9.2,2.6,8.7
				c-0.4-0.4-0.7-1-0.9-1.6C1.5,6.6,1.4,5.9,1.4,5.2c0-0.7,0.1-1.4,0.3-2c0.2-0.6,0.5-1.1,0.9-1.6C3,1.2,3.5,0.9,4.1,0.6
				c0.6-0.3,1.2-0.4,2-0.4c0.5,0,1,0.1,1.5,0.2C8,0.6,8.4,0.8,8.8,1.1c0.4,0.3,0.7,0.6,0.9,1.1c0.2,0.4,0.4,0.9,0.5,1.5h-2
				C8.1,3.4,8,3.2,7.9,3z"/>
			<path class="st0" d="M13.2,8.3c0.3,0.3,0.7,0.4,1.2,0.4c0.4,0,0.7-0.1,1-0.3c0.3-0.2,0.4-0.4,0.5-0.6h1.7
				c-0.3,0.8-0.7,1.4-1.2,1.8c-0.5,0.4-1.2,0.5-2,0.5c-0.5,0-1-0.1-1.5-0.3c-0.4-0.2-0.8-0.4-1.1-0.7c-0.3-0.3-0.5-0.7-0.7-1.1
				c-0.2-0.4-0.2-0.9-0.2-1.5c0-0.5,0.1-1,0.3-1.4c0.2-0.4,0.4-0.8,0.7-1.1c0.3-0.3,0.7-0.6,1.1-0.8c0.4-0.2,0.9-0.3,1.4-0.3
				c0.6,0,1.1,0.1,1.5,0.3c0.4,0.2,0.8,0.5,1.1,0.9c0.3,0.4,0.5,0.8,0.6,1.3c0.1,0.5,0.2,1,0.1,1.5h-5C12.8,7.6,12.9,8,13.2,8.3z
				 M15.3,4.7c-0.2-0.2-0.6-0.4-1-0.4c-0.3,0-0.6,0.1-0.8,0.2c-0.2,0.1-0.4,0.2-0.5,0.4C13,5,12.9,5.1,12.8,5.3
				c0,0.2-0.1,0.3-0.1,0.5h3.1C15.7,5.3,15.6,4.9,15.3,4.7z"/>
			<path class="st0" d="M20.3,3.1v1.3h0c0.1-0.2,0.2-0.4,0.4-0.6c0.2-0.2,0.3-0.3,0.5-0.5c0.2-0.1,0.4-0.2,0.6-0.3
				c0.2-0.1,0.5-0.1,0.7-0.1c0.1,0,0.3,0,0.4,0.1v1.8c-0.1,0-0.2,0-0.3,0c-0.1,0-0.2,0-0.4,0c-0.3,0-0.6,0.1-0.9,0.2
				c-0.2,0.1-0.4,0.3-0.6,0.5c-0.1,0.2-0.2,0.4-0.3,0.7c-0.1,0.3-0.1,0.6-0.1,0.9v3.1h-1.9V3.1H20.3z"/>
			<path class="st0" d="M28,3.1v1.3h-1.4v3.4c0,0.3,0.1,0.5,0.2,0.6c0.1,0.1,0.3,0.2,0.6,0.2c0.1,0,0.2,0,0.3,0c0.1,0,0.2,0,0.3,0
				v1.5c-0.2,0-0.3,0-0.5,0.1c-0.2,0-0.4,0-0.6,0c-0.3,0-0.6,0-0.8-0.1c-0.3,0-0.5-0.1-0.7-0.2c-0.2-0.1-0.4-0.3-0.5-0.5
				c-0.1-0.2-0.2-0.5-0.2-0.8V4.3h-1.1V3.1h1.1V1h1.9v2.1H28z"/>
			<path class="st0" d="M29,2V0.5h1.9V2H29z M30.9,3.1v6.9H29V3.1H30.9z"/>
			<path class="st0" d="M31.6,4.3V3.1h1.1V2.5c0-0.6,0.2-1.1,0.6-1.5c0.4-0.4,1-0.6,1.7-0.6c0.2,0,0.3,0,0.5,0c0.2,0,0.3,0,0.5,0
				v1.4c-0.2,0-0.5,0-0.7,0c-0.3,0-0.4,0.1-0.6,0.2c-0.1,0.1-0.2,0.3-0.2,0.6v0.4h1.3v1.3h-1.3v5.6h-1.9V4.3H31.6z"/>
			<path class="st0" d="M37.1,2V0.5H39V2H37.1z M39,3.1v6.9h-1.9V3.1H39z"/>
			<path class="st0" d="M41.9,8.3c0.3,0.3,0.7,0.4,1.2,0.4c0.4,0,0.7-0.1,1-0.3c0.3-0.2,0.4-0.4,0.5-0.6h1.7
				c-0.3,0.8-0.7,1.4-1.2,1.8c-0.6,0.4-1.2,0.5-2,0.5c-0.5,0-1-0.1-1.5-0.3c-0.4-0.2-0.8-0.4-1.1-0.7C40.2,8.8,40,8.4,39.8,8
				c-0.2-0.4-0.2-0.9-0.2-1.5c0-0.5,0.1-1,0.3-1.4c0.2-0.4,0.4-0.8,0.7-1.1c0.3-0.3,0.7-0.6,1.1-0.8c0.4-0.2,0.9-0.3,1.4-0.3
				c0.6,0,1.1,0.1,1.5,0.3c0.4,0.2,0.8,0.5,1.1,0.9c0.3,0.4,0.5,0.8,0.6,1.3c0.1,0.5,0.2,1,0.1,1.5h-5C41.5,7.6,41.7,8,41.9,8.3z
				 M44.1,4.7c-0.2-0.2-0.6-0.4-1-0.4c-0.3,0-0.6,0.1-0.8,0.2c-0.2,0.1-0.4,0.2-0.5,0.4c-0.1,0.2-0.2,0.3-0.3,0.5
				c0,0.2-0.1,0.3-0.1,0.5h3.1C44.5,5.3,44.3,4.9,44.1,4.7z"/>
			<path class="st0" d="M52.2,9.1c-0.2,0.4-0.5,0.6-0.9,0.8c-0.4,0.2-0.8,0.2-1.2,0.2c-0.5,0-1-0.1-1.4-0.3c-0.4-0.2-0.7-0.5-1-0.8
				c-0.3-0.3-0.4-0.7-0.6-1.2C47.1,7.4,47,6.9,47,6.4c0-0.5,0.1-0.9,0.2-1.3c0.1-0.4,0.3-0.8,0.6-1.1c0.3-0.3,0.6-0.6,0.9-0.8
				C49.1,3,49.5,2.9,50,2.9c0.4,0,0.8,0.1,1.2,0.3c0.4,0.2,0.7,0.4,0.9,0.8h0V0.5H54v9.5h-1.8L52.2,9.1L52.2,9.1z M52.1,5.7
				C52,5.4,51.9,5.2,51.8,5c-0.1-0.2-0.3-0.4-0.5-0.5c-0.2-0.1-0.5-0.2-0.8-0.2c-0.3,0-0.6,0.1-0.8,0.2c-0.2,0.1-0.4,0.3-0.5,0.5
				C49.1,5.2,49,5.4,49,5.7c-0.1,0.3-0.1,0.5-0.1,0.8c0,0.3,0,0.5,0.1,0.8C49,7.6,49.1,7.8,49.3,8c0.1,0.2,0.3,0.4,0.5,0.5
				c0.2,0.1,0.5,0.2,0.8,0.2c0.3,0,0.6-0.1,0.8-0.2c0.2-0.1,0.4-0.3,0.5-0.5c0.1-0.2,0.2-0.4,0.3-0.7c0.1-0.3,0.1-0.5,0.1-0.8
				C52.2,6.2,52.1,5.9,52.1,5.7z"/>
		</g>
	</g>
	<path class="st0" d="M16.4,25.4h11c2.7,0,6.2,0,8,1.1c2,1.2,3.6,3.4,3.6,6.3c0,3.2-1.7,5.6-4.5,6.8v0.1c3.7,0.8,5.8,3.6,5.8,7.3
		c0,4.5-3.2,8.7-9.2,8.7H16.4V25.4z M20.4,38.4h8.1c4.6,0,6.5-1.7,6.5-4.8c0-4.2-3-4.8-6.5-4.8h-8.1V38.4z M20.4,52.3h10.1
		c3.5,0,5.7-2.1,5.7-5.4c0-3.9-3.2-5.1-6.6-5.1h-9.2V52.3z"/>
	<path class="st0" d="M50.6,40.5c0,12.7-10.3,23.1-23.1,23.1c-12.7,0-23-10.3-23-23.1c0-12.7,10.3-23,23-23
		C40.2,17.5,50.6,27.8,50.6,40.5z M27.5,14C12.8,14,0.9,25.8,0.9,40.5c0,14.7,11.9,26.6,26.6,26.6c14.7,0,26.6-11.9,26.6-26.6
		C54.1,25.8,42.2,14,27.5,14z"/>
	<path class="st0" d="M5.8,72.8c-0.1-0.7-0.7-1.2-1.5-1.2c-1.3,0-1.8,1.1-1.8,2.3c0,1.1,0.5,2.2,1.8,2.2c0.9,0,1.4-0.6,1.5-1.5h1.4
		c-0.2,1.7-1.3,2.7-3,2.7c-2.1,0-3.3-1.6-3.3-3.5c0-2,1.2-3.5,3.3-3.5c1.5,0,2.7,0.9,2.9,2.4H5.8z"/>
	<path class="st0" d="M10.4,72.3c1.5,0,2.5,1,2.5,2.6c0,1.5-1,2.6-2.5,2.6c-1.5,0-2.5-1-2.5-2.6C7.9,73.3,8.9,72.3,10.4,72.3z
		 M10.4,76.4c0.9,0,1.2-0.8,1.2-1.6c0-0.8-0.3-1.6-1.2-1.6c-0.9,0-1.2,0.8-1.2,1.6C9.2,75.6,9.5,76.4,10.4,76.4z"/>
	<path class="st0" d="M13.7,72.4H15v0.9h0c0.2-0.6,0.9-1,1.6-1c0.1,0,0.2,0,0.3,0v1.2c-0.1,0-0.3,0-0.5,0c-1,0-1.3,0.7-1.3,1.6v2.2
		h-1.3V72.4z"/>
	<path class="st0" d="M17.5,72.4h1.3V73h0c0.3-0.5,0.8-0.8,1.4-0.8c1.5,0,2.2,1.2,2.2,2.6c0,1.3-0.7,2.5-2.1,2.5
		c-0.6,0-1.1-0.3-1.5-0.7h0V79h-1.3V72.4z M21.2,74.8c0-0.8-0.3-1.6-1.2-1.6c-0.9,0-1.2,0.8-1.2,1.6c0,0.8,0.3,1.5,1.2,1.5
		C20.9,76.4,21.2,75.6,21.2,74.8z"/>
	<path class="st0" d="M25.7,72.3c1.5,0,2.5,1,2.5,2.6c0,1.5-1,2.6-2.5,2.6c-1.5,0-2.5-1-2.5-2.6C23.1,73.3,24.1,72.3,25.7,72.3z
		 M25.7,76.4c0.9,0,1.2-0.8,1.2-1.6c0-0.8-0.3-1.6-1.2-1.6c-0.9,0-1.2,0.8-1.2,1.6C24.5,75.6,24.7,76.4,25.7,76.4z"/>
	<path class="st0" d="M29,72.4h1.3v0.9h0c0.2-0.6,0.9-1,1.5-1c0.1,0,0.2,0,0.3,0v1.2c-0.1,0-0.3,0-0.5,0c-1,0-1.3,0.7-1.3,1.6v2.2
		H29V72.4z"/>
	<path class="st0" d="M32.6,73.9c0.1-1.3,1.2-1.6,2.3-1.6c1,0,2.1,0.2,2.1,1.4v2.5c0,0.4,0,0.9,0.2,1.1h-1.4c0-0.2-0.1-0.3-0.1-0.5
		c-0.4,0.4-1,0.6-1.6,0.6c-0.9,0-1.7-0.5-1.7-1.5c0-1.1,0.8-1.4,1.7-1.5c0.8-0.1,1.6-0.1,1.6-0.6c0-0.6-0.4-0.7-0.9-0.7
		c-0.5,0-0.8,0.2-0.9,0.7H32.6z M35.7,74.9c-0.2,0.2-0.7,0.2-1.1,0.3c-0.4,0.1-0.8,0.2-0.8,0.7c0,0.5,0.4,0.6,0.8,0.6
		c1,0,1.1-0.8,1.1-1.1V74.9z"/>
	<path class="st0" d="M39.8,72.4h1v0.9h-1v2.4c0,0.5,0.1,0.6,0.6,0.6c0.1,0,0.3,0,0.4,0v1c-0.2,0-0.5,0-0.8,0
		c-0.8,0-1.5-0.2-1.5-1.2v-2.9h-0.8v-0.9h0.8v-1.5h1.3V72.4z"/>
	<path class="st0" d="M42.8,71.6h-1.3v-1.1h1.3V71.6z M41.4,72.4h1.3v4.9h-1.3V72.4z"/>
	<path class="st0" d="M46,72.3c1.5,0,2.5,1,2.5,2.6c0,1.5-1,2.6-2.5,2.6c-1.5,0-2.5-1-2.5-2.6C43.5,73.3,44.5,72.3,46,72.3z
		 M46,76.4c0.9,0,1.2-0.8,1.2-1.6c0-0.8-0.3-1.6-1.2-1.6c-0.9,0-1.2,0.8-1.2,1.6C44.8,75.6,45.1,76.4,46,76.4z"/>
	<path class="st0" d="M49.4,72.4h1.3v0.7h0c0.3-0.5,0.9-0.8,1.5-0.8c1.4,0,1.8,0.8,1.8,2v3h-1.3v-2.7c0-0.8-0.2-1.2-0.9-1.2
		c-0.7,0-1,0.4-1,1.4v2.5h-1.3V72.4z"/>
	<rect x="1" y="81.4" class="st0" width="52.9" height="3.4"/>
</g>
</svg>
