<?xml version="1.0" encoding="utf-8"?>
<!-- Generator: Adobe Illustrator 21.1.0, SVG Export Plug-In . SVG Version: 6.00 Build 0)  -->
<svg version="1.1" id="Layer_1" xmlns="http://www.w3.org/2000/svg" xmlns:xlink="http://www.w3.org/1999/xlink" x="0px" y="0px"
	 viewBox="0 0 55 85" style="enable-background:new 0 0 55 85;" xml:space="preserve">
<style type="text/css">
	.st0{fill:#A8A8A8;}
</style>
<g>
	<g>
		<g>
			<path class="st0" d="M7.9,3C7.8,2.8,7.6,2.6,7.4,2.5C7.2,2.3,7,2.2,6.8,2.1C6.6,2,6.3,2,6.1,2C5.6,2,5.2,2.1,4.9,2.3
				C4.5,2.4,4.3,2.7,4.1,3C3.9,3.3,3.7,3.6,3.6,4C3.5,4.4,3.5,4.8,3.5,5.2c0,0.4,0,0.8,0.1,1.2c0.1,0.4,0.2,0.7,0.4,1
				C4.3,7.7,4.5,8,4.9,8.1c0.3,0.2,0.7,0.3,1.2,0.3c0.6,0,1.1-0.2,1.5-0.6C8,7.4,8.2,6.9,8.3,6.3h2C10.2,6.9,10,7.4,9.8,7.9
				S9.3,8.8,8.9,9.1C8.6,9.4,8.2,9.7,7.7,9.9s-1,0.3-1.6,0.3c-0.7,0-1.4-0.1-2-0.4C3.5,9.5,3,9.2,2.6,8.7c-0.4-0.4-0.7-1-0.9-1.6
				C1.5,6.6,1.4,5.9,1.4,5.2s0.1-1.4,0.3-2s0.5-1.1,0.9-1.6c0.4-0.4,0.9-0.7,1.5-1s1.2-0.4,2-0.4c0.5,0,1,0.1,1.5,0.2
				C8,0.6,8.4,0.8,8.8,1.1c0.4,0.3,0.7,0.6,0.9,1.1c0.2,0.4,0.4,0.9,0.5,1.5h-2C8.1,3.4,8,3.2,7.9,3z"/>
			<path class="st0" d="M13.2,8.3c0.3,0.3,0.7,0.4,1.2,0.4c0.4,0,0.7-0.1,1-0.3s0.4-0.4,0.5-0.6h1.7c-0.3,0.8-0.7,1.4-1.2,1.8
				s-1.2,0.5-2,0.5c-0.5,0-1-0.1-1.5-0.3c-0.4-0.2-0.8-0.4-1.1-0.7S11.3,8.4,11.1,8s-0.2-0.9-0.2-1.5c0-0.5,0.1-1,0.3-1.4
				s0.4-0.8,0.7-1.1s0.7-0.6,1.1-0.8c0.4-0.2,0.9-0.3,1.4-0.3c0.6,0,1.1,0.1,1.5,0.3s0.8,0.5,1.1,0.9c0.3,0.4,0.5,0.8,0.6,1.3
				s0.2,1,0.1,1.5h-5C12.8,7.6,12.9,8,13.2,8.3z M15.3,4.7c-0.2-0.2-0.6-0.4-1-0.4c-0.3,0-0.6,0.1-0.8,0.2S13.1,4.7,13,4.9
				c0,0.1-0.1,0.2-0.2,0.4c0,0.2-0.1,0.3-0.1,0.5h3.1C15.7,5.3,15.6,4.9,15.3,4.7z"/>
			<path class="st0" d="M20.3,3.1v1.3l0,0c0.1-0.2,0.2-0.4,0.4-0.6c0.2-0.2,0.3-0.3,0.5-0.5c0.2-0.1,0.4-0.2,0.6-0.3
				s0.5-0.1,0.7-0.1c0.1,0,0.3,0,0.4,0.1v1.8c-0.1,0-0.2,0-0.3,0c-0.1,0-0.2,0-0.4,0c-0.3,0-0.6,0.1-0.9,0.2
				c-0.2,0.1-0.4,0.3-0.6,0.5c-0.1,0.2-0.2,0.4-0.3,0.7c-0.1,0.3-0.1,0.6-0.1,0.9v3.1h-1.9V3.1H20.3z"/>
			<path class="st0" d="M28,3.1v1.3h-1.4v3.4c0,0.3,0.1,0.5,0.2,0.6s0.3,0.2,0.6,0.2c0.1,0,0.2,0,0.3,0c0.1,0,0.2,0,0.3,0v1.5
				c-0.2,0-0.3,0-0.5,0.1c-0.2,0-0.4,0-0.6,0c-0.3,0-0.6,0-0.8-0.1c-0.3,0-0.5-0.1-0.7-0.2c-0.2-0.1-0.4-0.3-0.5-0.5
				s-0.2-0.5-0.2-0.8V4.3h-1.1V3.1h1.1V1h1.9v2.1H28z"/>
			<path class="st0" d="M29,2V0.5h1.9V2H29z M30.9,3.1V10H29V3.1H30.9z"/>
			<path class="st0" d="M31.6,4.3V3.1h1.1V2.5c0-0.6,0.2-1.1,0.6-1.5c0.4-0.4,1-0.6,1.7-0.6c0.2,0,0.3,0,0.5,0s0.3,0,0.5,0v1.4
				c-0.2,0-0.5,0-0.7,0c-0.3,0-0.4,0.1-0.6,0.2c-0.1,0.1-0.2,0.3-0.2,0.6V3h1.3v1.3h-1.3v5.6h-1.9V4.3H31.6z"/>
			<path class="st0" d="M37.1,2V0.5H39V2H37.1z M39,3.1V10h-1.9V3.1H39z"/>
			<path class="st0" d="M41.9,8.3c0.3,0.3,0.7,0.4,1.2,0.4c0.4,0,0.7-0.1,1-0.3s0.4-0.4,0.5-0.6h1.7c-0.3,0.8-0.7,1.4-1.2,1.8
				c-0.6,0.4-1.2,0.5-2,0.5c-0.5,0-1-0.1-1.5-0.3c-0.4-0.2-0.8-0.4-1.1-0.7C40.2,8.8,40,8.4,39.8,8c-0.2-0.4-0.2-0.9-0.2-1.5
				c0-0.5,0.1-1,0.3-1.4s0.4-0.8,0.7-1.1s0.7-0.6,1.1-0.8c0.4-0.2,0.9-0.3,1.4-0.3c0.6,0,1.1,0.1,1.5,0.3s0.8,0.5,1.1,0.9
				s0.5,0.8,0.6,1.3s0.2,1,0.1,1.5h-5C41.5,7.6,41.7,8,41.9,8.3z M44.1,4.7c-0.2-0.2-0.6-0.4-1-0.4c-0.3,0-0.6,0.1-0.8,0.2
				s-0.4,0.2-0.5,0.4c-0.1,0.2-0.2,0.3-0.3,0.5c0,0.2-0.1,0.3-0.1,0.5h3.1C44.5,5.3,44.3,4.9,44.1,4.7z"/>
			<path class="st0" d="M52.2,9.1c-0.2,0.4-0.5,0.6-0.9,0.8s-0.8,0.2-1.2,0.2c-0.5,0-1-0.1-1.4-0.3S48,9.3,47.7,9s-0.4-0.7-0.6-1.2
				c0-0.4-0.1-0.9-0.1-1.4s0.1-0.9,0.2-1.3c0.1-0.4,0.3-0.8,0.6-1.1s0.6-0.6,0.9-0.8C49.1,3,49.5,2.9,50,2.9c0.4,0,0.8,0.1,1.2,0.3
				s0.7,0.4,0.9,0.8l0,0V0.5H54V10h-1.8V9.1L52.2,9.1z M52.1,5.7C52,5.4,51.9,5.2,51.8,5c-0.1-0.2-0.3-0.4-0.5-0.5s-0.5-0.2-0.8-0.2
				s-0.6,0.1-0.8,0.2S49.3,4.8,49.2,5C49.1,5.2,49,5.4,49,5.7c-0.1,0.3-0.1,0.5-0.1,0.8s0,0.5,0.1,0.8c0,0.3,0.1,0.5,0.3,0.7
				c0.1,0.2,0.3,0.4,0.5,0.5s0.5,0.2,0.8,0.2s0.6-0.1,0.8-0.2c0.2-0.1,0.4-0.3,0.5-0.5s0.2-0.4,0.3-0.7c0.1-0.3,0.1-0.5,0.1-0.8
				C52.2,6.2,52.1,5.9,52.1,5.7z"/>
		</g>
	</g>
	<path class="st0" d="M16.4,25.4h11c2.7,0,6.2,0,8,1.1c2,1.2,3.6,3.4,3.6,6.3c0,3.2-1.7,5.6-4.5,6.8v0.1c3.7,0.8,5.8,3.6,5.8,7.3
		c0,4.5-3.2,8.7-9.2,8.7H16.4V25.4z M20.4,38.4h8.1c4.6,0,6.5-1.7,6.5-4.8c0-4.2-3-4.8-6.5-4.8h-8.1V38.4z M20.4,52.3h10.1
		c3.5,0,5.7-2.1,5.7-5.4c0-3.9-3.2-5.1-6.6-5.1h-9.2C20.4,41.8,20.4,52.3,20.4,52.3z"/>
	<path class="st0" d="M50.6,40.5c0,12.7-10.3,23.1-23.1,23.1c-12.7,0-23-10.3-23-23.1c0-12.7,10.3-23,23-23S50.6,27.8,50.6,40.5z
		 M27.5,14C12.8,14,0.9,25.8,0.9,40.5s11.9,26.6,26.6,26.6s26.6-11.9,26.6-26.6S42.2,14,27.5,14z"/>
	<path class="st0" d="M5.8,72.8c-0.1-0.7-0.7-1.2-1.5-1.2c-1.3,0-1.8,1.1-1.8,2.3c0,1.1,0.5,2.2,1.8,2.2c0.9,0,1.4-0.6,1.5-1.5h1.4
		c-0.2,1.7-1.3,2.7-3,2.7c-2.1,0-3.3-1.6-3.3-3.5c0-2,1.2-3.5,3.3-3.5c1.5,0,2.7,0.9,2.9,2.4L5.8,72.8L5.8,72.8z"/>
	<path class="st0" d="M10.4,72.3c1.5,0,2.5,1,2.5,2.6c0,1.5-1,2.6-2.5,2.6s-2.5-1-2.5-2.6C7.9,73.3,8.9,72.3,10.4,72.3z M10.4,76.4
		c0.9,0,1.2-0.8,1.2-1.6c0-0.8-0.3-1.6-1.2-1.6S9.2,74,9.2,74.8S9.5,76.4,10.4,76.4z"/>
	<path class="st0" d="M13.7,72.4H15v0.9l0,0c0.2-0.6,0.9-1,1.6-1c0.1,0,0.2,0,0.3,0v1.2c-0.1,0-0.3,0-0.5,0c-1,0-1.3,0.7-1.3,1.6
		v2.2h-1.3L13.7,72.4L13.7,72.4z"/>
	<path class="st0" d="M17.5,72.4h1.3V73l0,0c0.3-0.5,0.8-0.8,1.4-0.8c1.5,0,2.2,1.2,2.2,2.6c0,1.3-0.7,2.5-2.1,2.5
		c-0.6,0-1.1-0.3-1.5-0.7l0,0V79h-1.3V72.4z M21.2,74.8c0-0.8-0.3-1.6-1.2-1.6c-0.9,0-1.2,0.8-1.2,1.6c0,0.8,0.3,1.5,1.2,1.5
		C20.9,76.4,21.2,75.6,21.2,74.8z"/>
	<path class="st0" d="M25.7,72.3c1.5,0,2.5,1,2.5,2.6c0,1.5-1,2.6-2.5,2.6s-2.5-1-2.5-2.6C23.1,73.3,24.1,72.3,25.7,72.3z
		 M25.7,76.4c0.9,0,1.2-0.8,1.2-1.6c0-0.8-0.3-1.6-1.2-1.6c-0.9,0-1.2,0.8-1.2,1.6S24.7,76.4,25.7,76.4z"/>
	<path class="st0" d="M29,72.4h1.3v0.9l0,0c0.2-0.6,0.9-1,1.5-1c0.1,0,0.2,0,0.3,0v1.2c-0.1,0-0.3,0-0.5,0c-1,0-1.3,0.7-1.3,1.6v2.2
		H29V72.4z"/>
	<path class="st0" d="M32.6,73.9c0.1-1.3,1.2-1.6,2.3-1.6c1,0,2.1,0.2,2.1,1.4v2.5c0,0.4,0,0.9,0.2,1.1h-1.4c0-0.2-0.1-0.3-0.1-0.5
		c-0.4,0.4-1,0.6-1.6,0.6c-0.9,0-1.7-0.5-1.7-1.5c0-1.1,0.8-1.4,1.7-1.5c0.8-0.1,1.6-0.1,1.6-0.6c0-0.6-0.4-0.7-0.9-0.7
		s-0.8,0.2-0.9,0.7L32.6,73.9L32.6,73.9z M35.7,74.9c-0.2,0.2-0.7,0.2-1.1,0.3c-0.4,0.1-0.8,0.2-0.8,0.7s0.4,0.6,0.8,0.6
		c1,0,1.1-0.8,1.1-1.1V74.9z"/>
	<path class="st0" d="M39.8,72.4h1v0.9h-1v2.4c0,0.5,0.1,0.6,0.6,0.6c0.1,0,0.3,0,0.4,0v1c-0.2,0-0.5,0-0.8,0
		c-0.8,0-1.5-0.2-1.5-1.2v-2.9h-0.8v-0.9h0.8v-1.5h1.3V72.4z"/>
	<path class="st0" d="M42.8,71.6h-1.3v-1.1h1.3V71.6z M41.4,72.4h1.3v4.9h-1.3V72.4z"/>
	<path class="st0" d="M46,72.3c1.5,0,2.5,1,2.5,2.6c0,1.5-1,2.6-2.5,2.6s-2.5-1-2.5-2.6S44.5,72.3,46,72.3z M46,76.4
		c0.9,0,1.2-0.8,1.2-1.6c0-0.8-0.3-1.6-1.2-1.6s-1.2,0.8-1.2,1.6S45.1,76.4,46,76.4z"/>
	<path class="st0" d="M49.4,72.4h1.3v0.7l0,0c0.3-0.5,0.9-0.8,1.5-0.8c1.4,0,1.8,0.8,1.8,2v3h-1.3v-2.7c0-0.8-0.2-1.2-0.9-1.2
		s-1,0.4-1,1.4v2.5h-1.3L49.4,72.4L49.4,72.4z"/>
	<rect x="1" y="81.4" class="st0" width="52.9" height="3.4"/>
</g>
</svg>
