<svg id="Layer_1" xmlns="http://www.w3.org/2000/svg" x="0px" y="0px" viewBox="0 0 500 100">
  <style>
    .st0{fill:#f26e21}.st1{fill:#58595b}
  </style>
  <path class="st0" d="M329.41 32.05c-8.43 0-13.54 4.68-14.15 5.64V10.61l-11.64 6.35v71.26h11.64V55.63c0-7.21 2.21-12.42 9.52-12.42 7.32 0 9.47 5.03 9.47 12.45v32.56h11.64V49.56c0-10.27-5.2-17.51-16.48-17.51zM269.17 15.84c16.77 0 22.55 13.55 22.55 13.55l-9.43 5.06s-3.64-8.21-13.21-8.21c-8.08 0-12.13 4.63-12.13 9.13 0 16.18 37.22 6.02 37.22 31.78 0 11.19-9.39 22.25-25.71 22.25-12.41 0-21.85-9.39-25.5-14.97l11.28-5.67s5.83 9.01 15.13 9.01c7.25 0 12.01-3.48 12.01-9.87 0-16.39-37.06-5.47-37.06-32.19.01-12.02 11.25-19.87 24.85-19.87z"/>
  <polygon class="st1" points="51.17,16.94 2.77,16.94 2.77,27.51 20.54,27.51 20.54,88.17 33.4,88.17 33.4,27.51 51.17,27.51"/>
  <rect x="92.54" y="54.72" transform="rotate(-90 120.1597 60.5439)" class="st1" width="55.25" height="11.64"/>
  <ellipse class="st1" cx="120.2" cy="20.28" rx="6.68" ry="6.96"/>
  <polygon class="st1" points="223.68,88.17 235.81,88.17 218.63,53.19 218.63,53.19 234.88,32.93 221,32.93 205.22,53.02 205.22,10.76 193.58,16.99 193.58,88.17 205.22,88.17 205.22,69.84 211.3,62.38"/>
  <path class="st0" d="M486.7 44.36h10.42V32.92H486.7V10.66l-11.83 6.29-.01 15.97h-7.76v11.44h7.78l-.05 30.74c0 9.85 3.8 14.2 10.95 14.2 5.7 0 9.5-1.93 11.46-2.93l-.01-10.89s-3.8 2.79-6.41 2.79c-2.71 0-4.11-2.46-4.11-7.46-.01-.76-.01-26.45-.01-26.45z"/>
  <path class="st1" d="M85.27 31.89c-8.43 0-13.18 5.42-14.15 6.04h-.06V10.66l-11.64 6.3v71.21h11.64V56.18c0-6.92 2.21-12.4 9.52-12.4 7.32 0 9.47 5.03 9.47 12.45v31.94h11.64V50.13c.01-10.28-5.14-18.24-16.42-18.24zM164.13 31.9c-8.43 0-13.23 5.3-14.46 6.27v.09-5.33h-11.03v55.25h11.03V56.21c0-7.22 2.51-12.43 9.83-12.43s9.78 5.03 9.78 12.45v31.94h11.64V50.13c0-10.27-5.52-18.23-16.79-18.23z"/>
  <path class="st0" d="M446.01 32.92v31.89-.09c0 7.38-2.2 12.45-9.52 12.45-7.32 0-9.47-4.95-9.47-12.38V32.92h-11.64V70.9c0 10.27 5.09 18.38 16.36 18.38 8.42 0 13.66-5.54 14.27-6.5v5.38h11.64V32.92h-11.64zM380.62 31.93c-17.44 0-25.23 12.16-25.23 28.63s7.89 28.78 25.23 28.78 25.23-12.89 25.23-28.78-7.79-28.63-25.23-28.63zm0 46.37c-9.52 0-13.86-7.94-13.86-17.74s4.28-17.58 13.86-17.58 13.86 7.79 13.86 17.58-4.33 17.74-13.86 17.74z"/>
</svg>
