<?xml version="1.0" encoding="utf-8"?>
<!-- Generator: Adobe Illustrator 19.1.0, SVG Export Plug-In . SVG Version: 6.00 Build 0)  -->
<svg version="1.1" id="Layer_1" xmlns="http://www.w3.org/2000/svg" xmlns:xlink="http://www.w3.org/1999/xlink" x="0px" y="0px"
	 viewBox="0 0 236.2 69.7" style="enable-background:new 0 0 236.2 69.7;" xml:space="preserve">
<style type="text/css">
	.st0{fill:#F36E21;}
	.st1{fill:#FFFFFF;}
	.st2{fill:#BCBEC0;}
</style>
<g>
	<path class="st0" d="M139.1,27.7c-2,0-3.2,1.1-3.4,1.4v-6.5l-2.8,1.5v17.1h2.8v-7.8c0-1.7,0.5-3,2.3-3c1.8,0,2.3,1.2,2.3,3v7.8h2.8
		c0,0,0-7.3,0-9.3C143,29.5,141.8,27.7,139.1,27.7z"/>
	<path class="st0" d="M124.6,23.9c4,0,5.4,3.2,5.4,3.2l-2.3,1.2c0,0-0.9-2-3.2-2c-1.9,0-2.9,1.1-2.9,2.2c0,3.9,8.9,1.4,8.9,7.6
		c0,2.7-2.2,5.3-6.2,5.3c-3,0-5.2-2.2-6.1-3.6l2.7-1.4c0,0,1.4,2.2,3.6,2.2c1.7,0,2.9-0.8,2.9-2.4c0-3.9-8.9-1.3-8.9-7.7
		C118.7,25.7,121.4,23.9,124.6,23.9z"/>
	<polygon class="st1" points="72.4,24.1 60.9,24.1 60.9,26.7 65.1,26.7 65.1,41.2 68.2,41.2 68.2,26.7 72.4,26.7 	"/>
	<rect x="87.6" y="27.9" class="st1" width="2.8" height="13.2"/>
	<ellipse class="st1" cx="89" cy="24.9" rx="1.6" ry="1.7"/>
	<polygon class="st1" points="113.7,41.2 116.6,41.2 112.5,32.8 112.5,32.8 116.4,27.9 113.1,27.9 109.3,32.8 109.3,22.6 
		106.5,24.1 106.5,41.2 109.3,41.2 109.3,36.8 110.8,35 	"/>
	<path class="st0" d="M176.7,30.7h2.5v-2.7h-2.5v-5.3l-2.8,1.5l0,3.8H172v2.7h1.9l0,7.4c0,2.4,0.9,3.4,2.6,3.4
		c1.4,0,2.3-0.5,2.7-0.7l0-2.6c0,0-0.9,0.7-1.5,0.7c-0.6,0-1-0.6-1-1.8C176.7,36.8,176.7,30.7,176.7,30.7z"/>
	<path class="st1" d="M80.6,27.7c-2,0-3.2,1.3-3.4,1.4h0v-6.5l-2.8,1.5v17h2.8v-7.7c0-1.7,0.5-3,2.3-3c1.8,0,2.3,1.2,2.3,3v7.6h2.8
		c0,0,0-7.1,0-9.1C84.5,29.6,83.3,27.7,80.6,27.7z"/>
	<path class="st1" d="M99.5,27.7c-2,0-3.2,1.3-3.5,1.5v0v-1.3h-2.6v13.2H96v-7.7c0-1.7,0.6-3,2.4-3c1.8,0,2.3,1.2,2.3,3v7.6h2.8
		c0,0,0-7.1,0-9.1C103.5,29.6,102.2,27.7,99.5,27.7z"/>
	<path class="st0" d="M167,27.9v7.6v0c0,1.8-0.5,3-2.3,3c-1.8,0-2.3-1.2-2.3-3v-7.6h-2.8c0,0,0,7.1,0,9.1c0,2.5,1.2,4.4,3.9,4.4
		c2,0,3.3-1.3,3.4-1.6v1.3h2.8V27.9H167z"/>
	<path class="st0" d="M151.3,27.7c-4.2,0-6,2.9-6,6.9s1.9,6.9,6,6.9c4.1,0,6-3.1,6-6.9C157.3,30.8,155.5,27.7,151.3,27.7z
		 M151.3,38.8c-2.3,0-3.3-1.9-3.3-4.2s1-4.2,3.3-4.2c2.3,0,3.3,1.9,3.3,4.2S153.6,38.8,151.3,38.8z"/>
	<path class="st2" d="M74,46.8c-1.7,1.3-3.7,1.9-5.9,1.9c-3.3,0-6.4-1.6-8.3-4.3l-0.6-0.9l-1,0.3c-0.8,0.2-1.7,0.3-2.5,0.3
		c-5.6,0-10.1-4.6-10.1-10.2c0-2.6,1-5.2,2.8-7.1c1.8-1.9,4.2-3,6.9-3.1l1.2-0.1l0.3-1.1c0.5-2.2,1.8-4.2,3.5-5.6
		c1.8-1.5,4-2.3,6.3-2.3c3,0,5.8,1.4,7.6,3.4h3.8c-2.3-3.8-6.5-6.5-11.4-6.5c-3,0-5.9,1.1-8.2,2.9c-2,1.6-3.5,3.8-4.3,6.2
		c-3,0.4-5.7,1.8-7.8,4c-2.4,2.5-3.7,5.8-3.7,9.2c0,7.3,5.9,13.3,13.2,13.3c0.8,0,1.5-0.1,2.3-0.2c2.5,3,6.2,4.8,10.2,4.8
		c4.2,0,7.9-1.9,10.3-5H74z"/>
	<path class="st2" d="M188.2,14.8h-21.1l-1.6,3.1h22.6c1.4,0,2.5,1.2,2.5,2.6v24c0,1.4-1.1,2.5-2.5,2.5h-32.5l1.6,3.1H182l4.7,6.1
		l0.6,0l-0.5-6.1h1.4c3.1,0,5.6-2.5,5.6-5.6v-24C193.7,17.5,191.3,14.8,188.2,14.8z"/>
	<circle class="st2" cx="55.8" cy="51.5" r="2.2"/>
	<circle class="st2" cx="53.1" cy="56.2" r="1.5"/>
</g>
</svg>
