<?xml version="1.0" encoding="utf-8"?>
<!-- Generator: Adobe Illustrator 17.0.2, SVG Export Plug-In . SVG Version: 6.00 Build 0)  -->
<!DOCTYPE svg PUBLIC "-//W3C//DTD SVG 1.1//EN" "http://www.w3.org/Graphics/SVG/1.1/DTD/svg11.dtd">
<svg version="1.1" id="Layer_1" xmlns="http://www.w3.org/2000/svg" xmlns:xlink="http://www.w3.org/1999/xlink" x="0px" y="0px"
	 width="85.5px" height="69.676px" viewBox="0 0 85.5 69.676" enable-background="new 0 0 85.5 69.676" xml:space="preserve">
<path fill="#C6BFB6" d="M52.81,48.652h-2.138c0,0,0.584-0.503,1.245-1.125c0.663-0.623,0.972-1.212,0.972-1.212h7.743
	c1.855,0,3.365-1.508,3.365-3.364V19.8c0-1.854-1.51-3.364-3.365-3.364H52.93L51.258,14.1h9.374c3.142,0,5.7,2.557,5.7,5.7v23.151
	c0,3.144-2.558,5.701-5.7,5.701h-1.526l1.538,8.743L52.81,48.652z"/>
<g>
	<path fill="#C6BFB6" d="M20.665,55.247c-0.603,0.673-0.547,1.712,0.128,2.314c0.675,0.601,1.707,0.545,2.314-0.128
		c0.603-0.675,0.545-1.712-0.128-2.314C22.304,54.515,21.267,54.573,20.665,55.247z"/>
	<path fill="#C6BFB6" d="M40.059,50.772c-1.104,0-2.261-0.132-3.449-0.39c-4.026-0.879-5.638-3.615-6.238-5.169l-0.186-0.476
		l-0.508,0.059c-0.777,0.09-1.565,0.138-2.34,0.138c-2.312,0-5.605-0.427-8.168-2.457c-2.616-2.076-3.945-4.421-3.945-8.781
		c0-7.015,4.787-9.82,9.265-10.966l0.401-0.102l0.084-0.406c0.538-2.664,2.178-6.611,7.108-9.25
		c5.028-2.693,12.013-1.551,15.51,1.984c2.41,2.435,2.215,3.239,2.215,3.239s-3.803-5.014-12.4-4.321
		c-1.556,0.124-3.003,0.348-4.288,1.037c-5.526,2.959-6.143,8.703-6.15,8.769l-0.076,0.867l-0.879,0.119
		c-0.353,0.051-8.59,0.407-8.59,9.03c0,3.654,1.046,5.422,3.112,7.06c2.057,1.63,4.826,1.971,6.783,1.971
		c1.909,0,3.381-0.317,3.442-0.33l1.218-0.284l0.135,1.234c0.026,0.175,0.591,3.829,5.06,5.397c0.849,0.297,1.818,0.684,4.499,0.322
		c4.754-0.642,7.574-4.005,8.112-4.559C49.482,45.278,47.049,50.772,40.059,50.772L40.059,50.772z"/>
	<path fill="#C6BFB6" d="M28.178,48.545c-1.306-1.173-3.323-1.064-4.494,0.248c-1.174,1.31-1.062,3.321,0.248,4.494
		c1.308,1.176,3.323,1.062,4.497-0.246C29.602,51.732,29.489,49.719,28.178,48.545z M27.399,51.511
		c-0.251,0.278-0.608,0.438-0.983,0.438c-0.322,0-0.635-0.118-0.877-0.334c-0.54-0.487-0.587-1.32-0.102-1.862
		c0.251-0.278,0.608-0.438,0.981-0.438c0.325,0,0.635,0.121,0.879,0.336c0.262,0.237,0.417,0.557,0.434,0.909
		C27.754,50.913,27.633,51.249,27.399,51.511z"/>
</g>
<path fill="#696057" d="M40.006,40.59h-3.122V24.404h-5.007v-2.812h13.066l-1.593,2.812h-3.344V40.59z"/>
<path fill="#EF7622" d="M47.833,35.53c0.666,1.027,1.324,1.743,1.969,2.148c0.647,0.403,1.408,0.606,2.287,0.606
	c1.053,0,1.874-0.262,2.461-0.784c0.589-0.523,0.884-1.14,0.884-1.852c0-0.623-0.232-1.397-0.696-1.872
	c-0.475-0.473-1.535-0.93-3.175-1.368c-2.238-0.589-3.843-1.309-4.808-2.16c-1.204-1.071-1.804-2.173-1.804-3.753
	c0-1.694,0.601-3.097,1.804-4.208c1.201-1.111,2.853-1.665,4.951-1.665c1.194,0,2.259,0.199,3.193,0.598
	c0.935,0.4,1.728,0.911,2.377,1.534c0.422,0.414,0.844,0.979,1.266,1.699l-3.321,1.357c-0.561-0.799-1.136-1.381-1.723-1.751
	c-0.589-0.369-1.243-0.553-1.964-0.553c-0.886,0-1.595,0.248-2.127,0.744c-0.531,0.495-0.798,1.095-0.798,1.797
	c0,0.561,0.22,1.045,0.659,1.448c0.431,0.405,1.51,0.821,3.24,1.252c1.73,0.429,3.04,0.931,3.931,1.501
	c0.893,0.572,1.561,1.313,2.004,2.226c0.443,0.914,0.666,1.853,0.666,2.818c0,1.019-0.287,2.043-0.856,3.069
	c-0.573,1.027-1.419,1.817-2.544,2.371c-1.122,0.553-2.414,0.829-3.871,0.829c-1.38,0-2.574-0.232-3.59-0.691
	c-1.011-0.46-1.872-1.083-2.574-1.865c-0.457-0.5-0.916-1.198-1.384-2.093L47.833,35.53z"/>
</svg>
