<?xml version="1.0" encoding="utf-8"?>
<!-- Generator: Adobe Illustrator 19.1.0, SVG Export Plug-In . SVG Version: 6.00 Build 0)  -->
<svg version="1.1" id="Layer_1" xmlns="http://www.w3.org/2000/svg" xmlns:xlink="http://www.w3.org/1999/xlink" x="0px" y="0px"
	 viewBox="0 0 85.5 69.8" style="enable-background:new 0 0 85.5 69.8;" xml:space="preserve">
<style type="text/css">
	.st0{fill:#BCBEC0;}
	.st1{fill:#F36E21;}
</style>
<path class="st0" d="M61.5,18.2h-17l-1.5,3h18.5c1.4,0,2.4,1.2,2.4,2.6v23.9c0,1.4-1.1,2.4-2.4,2.4H49.3l-1.7,3h8l4.5,6l0.6,0
	l-0.5-5.9h1.4c3,0,5.4-2.4,5.4-5.4V23.8C66.9,20.8,64.5,18.2,61.5,18.2z"/>
<circle class="st0" cx="31.6" cy="49.5" r="2.2"/>
<circle class="st0" cx="29" cy="54.1" r="1.4"/>
<g>
	<polygon class="st1" points="43.6,26 34.3,26 34.3,28.1 37.7,28.1 37.7,39.7 40.1,39.7 40.1,28.1 43.6,28.1 	"/>
	<path class="st1" d="M49,25.8c3.2,0,4.3,2.6,4.3,2.6l-1.8,1c0,0-0.7-1.6-2.5-1.6c-1.6,0-2.3,0.9-2.3,1.8c0,3.1,7.2,1.2,7.2,6.1
		c0,2.2-1.8,4.3-4.9,4.3c-2.4,0-4.2-1.8-4.9-2.9l2.2-1.1c0,0,1.1,1.7,2.9,1.7c1.4,0,2.3-0.7,2.3-1.9c0-3.2-7.1-1.1-7.1-6.2
		C44.2,27.3,46.4,25.8,49,25.8z"/>
</g>
<path class="st0" d="M43.4,46.8c-3.2,0-6.2-1.6-8-4.2l-0.6-0.8l-1,0.3c-0.8,0.2-1.6,0.3-2.4,0.3c-5.4,0-9.8-4.4-9.8-9.9
	c0-2.6,1-5,2.7-6.8c1.8-1.8,4.1-2.9,6.6-3l1.1-0.1l0.3-1.1c0.5-2.1,1.7-4,3.4-5.4c1.8-1.4,3.9-2.2,6.1-2.2c2.5,0,4.8,1,6.6,2.5h3.9
	c-2.3-3.3-6.2-5.5-10.5-5.5c-2.9,0-5.7,1-8,2.8c-1.9,1.6-3.4,3.7-4.2,6c-2.9,0.4-5.5,1.7-7.6,3.9c-2.3,2.4-3.6,5.6-3.6,8.9
	c0,7.1,5.7,12.9,12.8,12.9c0.7,0,1.5-0.1,2.2-0.2c2.4,2.9,6,4.6,9.9,4.6c4,0,7.6-1.9,10-4.9h-4.3C47.5,46.3,45.6,46.8,43.4,46.8z"/>
</svg>
