<?xml version="1.0" encoding="UTF-8" standalone="no"?>
<svg width="79px" height="79px" viewBox="0 0 79 79" version="1.1" xmlns="http://www.w3.org/2000/svg" xmlns:xlink="http://www.w3.org/1999/xlink" xmlns:sketch="http://www.bohemiancoding.com/sketch/ns">
    <!-- Generator: Sketch 3.3 (11970) - http://www.bohemiancoding.com/sketch -->
    <title>Icon</title>
    <desc>Created with Sketch.</desc>
    <defs></defs>
    <g id="Welcome" stroke="none" stroke-width="1" fill="none" fill-rule="evenodd" sketch:type="MSPage">
        <g id="Desktop-HD" sketch:type="MSArtboardGroup" transform="translate(-596.000000, -837.000000)">
            <g id="1-copy-2" sketch:type="MSLayerGroup" transform="translate(-61.000000, 837.000000)">
                <g id="Content-Strategy-&amp;-M-+-Rectangle-2" transform="translate(330.000000, 0.000000)" sketch:type="MSShapeGroup">
                    <g id="Icon" transform="translate(327.000000, 0.000000)">
                        <circle id="Oval-1" fill="#F58026" cx="39.5" cy="39.5" r="39.5"></circle>
                        <path d="M60.4191176,35.3409492 L52.9541912,35.3409492 C52.4306029,35.3409492 52.0056618,35.7623729 52.0056618,36.2816271 L52.0056618,55.6156949 L48.7509412,55.6156949 L48.7509412,25.8225424 C48.7509412,25.3032881 48.326,24.8818644 47.8024118,24.8818644 L40.3368529,24.8818644 C39.8132647,24.8818644 39.3883235,25.3032881 39.3883235,25.8225424 L39.3883235,55.6156949 L36.1336029,55.6156949 L36.1336029,41.2402542 C36.1336029,40.721 35.7092941,40.2995763 35.1850735,40.2995763 L27.7201471,40.2995763 C27.1965588,40.2995763 26.7716176,40.721 26.7716176,41.2402542 L26.7716176,55.6156949 L24.8265,55.6156949 C24.7891912,55.6156949 24.75125,55.6182034 24.7145735,55.6225932 C24.7158382,55.6238475 24.3604559,55.6370169 24.1378676,55.4401017 C23.8830294,55.2155932 23.8292794,54.7584237 23.8292794,54.4135085 L23.8292794,21.940678 C23.8292794,21.4214237 23.4049706,21 22.88075,21 L19.9485294,21 C19.4249412,21 19,21.4214237 19,21.940678 C19,22.4599322 19.4249412,22.8813559 19.9485294,22.8813559 L21.9322206,22.8813559 L21.9322206,27.020339 L19.9485294,27.020339 C19.4249412,27.020339 19,27.4417627 19,27.9610169 C19,28.4802712 19.4249412,28.9016949 19.9485294,28.9016949 L21.9322206,28.9016949 L21.9322206,33.040678 L19.9485294,33.040678 C19.4249412,33.040678 19,33.4621017 19,33.9813559 C19,34.5006102 19.4249412,34.9220339 19.9485294,34.9220339 L21.9322206,34.9220339 L21.9322206,39.0616441 L19.9485294,39.0616441 C19.4249412,39.0616441 19,39.4824407 19,40.002322 C19,40.5215763 19.4249412,40.943 19.9485294,40.943 L21.9322206,40.943 L21.9322206,45.0813559 L19.9485294,45.0813559 C19.4249412,45.0813559 19,45.5027797 19,46.0220339 C19,46.5412881 19.4249412,46.9627119 19.9485294,46.9627119 L21.9322206,46.9627119 L21.9322206,51.1016949 L19.9485294,51.1016949 C19.4249412,51.1016949 19,51.5231186 19,52.0423729 C19,52.5616271 19.4249412,52.9830508 19.9485294,52.9830508 L21.9322206,52.9830508 L21.9322206,54.4135085 C21.9322206,55.4752203 22.2502941,56.2942373 22.8775882,56.8467288 C23.5282794,57.4199153 24.3016471,57.5026949 24.6943382,57.5026949 C24.7645294,57.5026949 24.8227059,57.5001864 24.8657059,57.4970508 L60.4191176,57.4970508 C60.9427059,57.4970508 61.3676471,57.0756271 61.3676471,56.5563729 L61.3676471,36.2816271 C61.3676471,35.7623729 60.9427059,35.3409492 60.4191176,35.3409492 L60.4191176,35.3409492 Z M28.6686765,42.1809322 L34.2371765,42.1809322 L34.2371765,55.6156949 L28.6686765,55.6156949 L28.6686765,42.1809322 Z M41.2853824,26.7632203 L46.8538824,26.7632203 L46.8538824,55.6156949 L41.2853824,55.6156949 L41.2853824,26.7632203 Z M53.9027206,37.2223051 L59.4705882,37.2223051 L59.4705882,55.6156949 L53.9027206,55.6156949 L53.9027206,37.2223051 Z" id="Imported-Layers" fill="#FFFFFF"></path>
                    </g>
                </g>
            </g>
        </g>
    </g>
</svg>