<?xml version="1.0" encoding="UTF-8" standalone="no"?>
<svg width="79px" height="79px" viewBox="0 0 79 79" version="1.1" xmlns="http://www.w3.org/2000/svg" xmlns:xlink="http://www.w3.org/1999/xlink" xmlns:sketch="http://www.bohemiancoding.com/sketch/ns">
    <!-- Generator: Sketch 3.3 (11970) - http://www.bohemiancoding.com/sketch -->
    <title>icon-open-source</title>
    <desc>Created with Sketch.</desc>
    <defs></defs>
    <g id="Welcome" stroke="none" stroke-width="1" fill="none" fill-rule="evenodd" sketch:type="MSPage">
        <g id="Desktop-HD" sketch:type="MSArtboardGroup" transform="translate(-596.000000, -1963.000000)">
            <g id="1-copy-2" sketch:type="MSLayerGroup" transform="translate(-61.000000, 837.000000)">
                <g id="Content-Strategy-&amp;-M-+-Rectangle-2-Copy-4" transform="translate(330.000000, 1126.000000)" sketch:type="MSShapeGroup">
                    <g id="icon-open-source" transform="translate(327.000000, 0.000000)">
                        <circle id="Oval-1" fill="#F58026" cx="39.5" cy="39.5" r="39.5"></circle>
                        <g id="Imported-Layers" transform="translate(21.000000, 20.000000)" fill="#FFFFFF">
                            <path d="M37,2.9624965 C37,1.32907762 35.7059426,0 34.1149751,0 L12.884437,0 C11.2940574,0 10,1.32907762 10,2.9624965 L10,25.0368997 C10,26.6703185 11.2940574,27.9993961 12.884437,27.9993961 L20.4706356,27.9993961 L20.4706356,25.0580345 L14.6253294,25.0580345 C13.6540513,25.0580345 12.8632711,24.2464578 12.8632711,23.2482909 L12.8632711,4.75110526 C12.8632711,3.75293839 13.6540513,2.94075783 14.6253294,2.94075783 L32.3740827,2.94075783 C33.3459487,2.94075783 34.1361409,3.75293839 34.1361409,4.75110526 L34.1361409,23.2482909 C34.1361409,24.2464578 33.3459487,25.0580345 32.3740827,25.0580345 L30.3127627,25.0580345 L30.3127627,28 L34.1149751,28 C35.7059426,28 37,26.6709224 37,25.0368997 L37,2.9624965" id="Fill-1"></path>
                            <path d="M27,13.9625604 C27,12.3291063 25.7065023,11 24.1160881,11 L16.5297243,11 L16.5297243,13.9414251 L22.3745699,13.9414251 C23.346457,13.9414251 24.1366665,14.7530193 24.1366665,15.7512077 L24.1366665,34.2493961 C24.1366665,35.2475845 23.346457,36.0591787 22.3745699,36.0591787 L4.62543008,36.0591787 C3.65413092,36.0591787 2.86392143,35.2475845 2.86392143,34.2493961 L2.86392143,15.7512077 C2.86392143,14.7530193 3.65413092,13.9414251 4.62543008,13.9414251 L7.05779365,13.9414251 L7.05779365,11 L2.8844998,11 C1.29408562,11 0,12.3291063 0,13.9625604 L0,36.0380435 C0,37.6714976 1.29408562,39 2.8844998,39 L24.1160881,39 C25.7065023,39 27,37.6714976 27,36.0380435 L27,13.9625604" id="Fill-2"></path>
                        </g>
                    </g>
                </g>
            </g>
        </g>
    </g>
</svg>