<?xml version="1.0" encoding="UTF-8" standalone="no"?>
<svg width="79px" height="79px" viewBox="0 0 79 79" version="1.1" xmlns="http://www.w3.org/2000/svg" xmlns:xlink="http://www.w3.org/1999/xlink" xmlns:sketch="http://www.bohemiancoding.com/sketch/ns">
    <!-- Generator: Sketch 3.3 (11970) - http://www.bohemiancoding.com/sketch -->
    <title>icon-design</title>
    <desc>Created with Sketch.</desc>
    <defs></defs>
    <g id="Welcome" stroke="none" stroke-width="1" fill="none" fill-rule="evenodd" sketch:type="MSPage">
        <g id="Desktop-HD" sketch:type="MSArtboardGroup" transform="translate(-596.000000, -1376.000000)">
            <g id="1-copy-2" sketch:type="MSLayerGroup" transform="translate(-61.000000, 837.000000)">
                <g id="Content-Strategy-&amp;-M-+-Rectangle-2-Copy-3" transform="translate(0.000000, 500.000000)" sketch:type="MSShapeGroup">
                    <g id="icon-design" transform="translate(657.000000, 39.000000)">
                        <circle id="Oval-1" fill="#F58026" cx="39.5" cy="39.5" r="39.5"></circle>
                        <path d="M39.7468354,27.5256962 L37.4907595,28.6265823 L21.9746835,21.0635443 L21.9746835,36.1896203 L20,37.1522785 L20,19 L22.2560759,19 L26.3091139,20.9746835 L39.7468354,27.5256962 Z M22.2560759,19 L26.3091139,20.9746835 L53.184557,20.9746835 L39.7468354,27.5256962 L37.4907595,28.6265823 L21.9746835,36.1896203 L20,37.1522785 L20,38.2531646 L59.4936709,38.2531646 L59.4936709,19 L22.2560759,19 Z M26.3091139,36.278481 L39.7468354,29.7274684 L53.184557,36.278481 L26.3091139,36.278481 L26.3091139,36.278481 Z M57.5189873,36.1896203 L42.0029114,28.6265823 L57.5189873,21.0635443 L57.5189873,36.1896203 Z M20,40.2278481 L20,50.1012658 L21.9746835,50.1012658 L21.9746835,48.1265823 L23.9493671,48.1265823 L23.9493671,50.1012658 L25.9240506,50.1012658 L25.9240506,40.2278481 L20,40.2278481 Z M23.9493671,46.1518987 L21.9746835,46.1518987 L21.9746835,42.2025316 L23.9493671,42.2025316 L23.9493671,46.1518987 Z M27.8987342,40.2278481 L59.4936709,40.2278481 L59.4936709,42.2025316 L27.8987342,42.2025316 L27.8987342,40.2278481 Z M27.8987342,44.1772152 L59.4936709,44.1772152 L59.4936709,46.1518987 L27.8987342,46.1518987 L27.8987342,44.1772152 Z M27.8987342,48.1265823 L59.4936709,48.1265823 L59.4936709,50.1012658 L27.8987342,50.1012658 L27.8987342,48.1265823 Z M20,52.0759494 L59.4936709,52.0759494 L59.4936709,54.0506329 L20,54.0506329 L20,52.0759494 Z M20,56.0253165 L59.4936709,56.0253165 L59.4936709,58 L20,58 L20,56.0253165 Z" id="Shape" fill="#FFFFFF"></path>
                    </g>
                </g>
            </g>
        </g>
    </g>
</svg>