<?xml version="1.0" encoding="iso-8859-1"?>
<!-- Generator: Adobe Illustrator 17.0.2, SVG Export Plug-In . SVG Version: 6.00 Build 0)  -->
<!DOCTYPE svg PUBLIC "-//W3C//DTD SVG 1.1//EN" "http://www.w3.org/Graphics/SVG/1.1/DTD/svg11.dtd">
<svg version="1.1" id="Layer_1" xmlns="http://www.w3.org/2000/svg" xmlns:xlink="http://www.w3.org/1999/xlink" x="0px" y="0px"
	 width="236px" height="69.676px" viewBox="0 0 236 69.676" style="enable-background:new 0 0 236 69.676;" xml:space="preserve">
<g>
	<path style="fill:#D6D0C5;" d="M174.769,50.539h-10.756l-1.779-2.366h25.441c1.878,0,3.407-1.529,3.407-3.407V19.963
		c0-1.877-1.528-3.405-3.407-3.405h-14.959l2.372-2.366h12.587c3.182,0,5.772,2.589,5.772,5.772v24.804
		c0,3.183-2.59,5.772-5.772,5.772h-6.534l1.555,8.849L174.769,50.539z"/>
	<circle style="fill:#D6D0C5;" cx="45.787" cy="57.87" r="1.658"/>
	<path style="fill:#D6D0C5;" d="M65.498,51.933c-1.114,0-2.287-0.132-3.49-0.395c-4.075-0.887-5.705-3.659-6.315-5.23l-0.187-0.483
		l-0.514,0.061c-0.787,0.091-1.584,0.139-2.368,0.139c-2.341,0-5.673-0.431-8.267-2.487c-2.65-2.099-3.993-5.404-3.993-9.817
		c0-7.099,4.843-10.866,9.378-12.026l0.406-0.103l0.083-0.411c0.545-2.696,2.204-6.691,7.194-9.362
		c1.118-0.598,2.439-0.902,3.924-0.902c2.358,0,5.132,0.79,7.613,2.168c1.92,1.066,3.502,2.401,4.473,3.312
		c-1.142-0.026-1.391-0.231-1.394-0.232c-0.755-0.682-4.768-3.435-9.225-3.435c-1.579,0-3.041,0.354-4.341,1.05
		c-5.594,2.997-6.219,8.809-6.224,8.876l-0.078,0.878l-0.887,0.121c-0.358,0.051-8.697,1.339-8.697,10.066
		c0,3.7,1.059,6.416,3.15,8.074c2.081,1.65,4.883,1.996,6.866,1.996c1.93,0,3.421-0.319,3.484-0.333l1.232-0.289l0.136,1.248
		c0.025,0.179,0.599,3.879,5.12,5.465c0.859,0.301,2.607,0.445,5.343,0.445c1.35,0,2.713-0.038,3.775-0.076
		C70.466,51.039,68.427,51.933,65.498,51.933L65.498,51.933z"/>
	<path style="fill:#D6D0C5;" d="M52.153,50.171c-1.324-1.189-3.365-1.077-4.551,0.251c-1.189,1.325-1.075,3.363,0.251,4.55
		c1.325,1.188,3.364,1.074,4.55-0.25C53.592,53.396,53.478,51.359,52.153,50.171z M51.363,53.172
		c-0.253,0.283-0.616,0.444-0.995,0.444c-0.328,0-0.643-0.12-0.888-0.339c-0.547-0.493-0.594-1.336-0.104-1.885
		c0.253-0.28,0.616-0.442,0.994-0.442c0.328,0,0.644,0.12,0.889,0.339c0.266,0.239,0.422,0.565,0.442,0.92
		C51.721,52.566,51.6,52.908,51.363,53.172z"/>
</g>
<g>
	<path style="fill:#F58025;" d="M143.2,32.641c0-0.675-0.231-1.257-0.694-1.743c-0.463-0.484-0.976-0.727-1.54-0.727
		c-0.541,0-1.044,0.23-1.507,0.694c-0.462,0.461-0.693,1.054-0.693,1.775v9.343h-3.453V23.91l3.453-2.2v6.363
		c0.766-0.902,1.816-1.354,3.147-1.354c0.677,0,1.303,0.136,1.878,0.407c0.576,0.271,1.072,0.655,1.49,1.15
		c0.418,0.496,0.75,1.089,0.998,1.777c0.249,0.689,0.373,1.449,0.373,2.284v9.647H143.2V32.641z"/>
	<path style="fill:#F58025;" d="M154.205,42.154c-1.985,0-3.503-0.672-4.552-2.015c-1.049-1.342-1.575-3.242-1.575-5.704
		c0-1.104,0.147-2.132,0.441-3.079c0.292-0.947,0.71-1.772,1.252-2.471c0.542-0.698,1.185-1.246,1.929-1.641
		c0.745-0.394,1.579-0.591,2.505-0.591c0.925,0,1.766,0.197,2.522,0.591c0.756,0.395,1.404,0.936,1.946,1.625
		c0.542,0.687,0.959,1.512,1.253,2.471c0.292,0.958,0.44,1.991,0.44,3.096c0,2.393-0.53,4.277-1.591,5.653
		C157.713,41.464,156.19,42.154,154.205,42.154z M154.205,30.172c-0.858,0-1.518,0.394-1.98,1.184
		c-0.463,0.79-0.694,1.828-0.694,3.114c0,2.776,0.902,4.163,2.708,4.163c1.782,0,2.674-1.387,2.674-4.163
		C156.912,31.604,156.01,30.172,154.205,30.172z"/>
	<path style="fill:#F58025;" d="M169.479,40.934c-0.429,0.43-0.931,0.74-1.506,0.931c-0.576,0.193-1.179,0.289-1.811,0.289
		c-1.422,0-2.544-0.48-3.368-1.439c-0.824-0.959-1.235-2.285-1.235-3.977v-9.883h3.452v8.936c0,0.857,0.175,1.545,0.525,2.063
		c0.35,0.52,0.863,0.779,1.541,0.779c0.654,0,1.218-0.259,1.692-0.779c0.474-0.518,0.71-1.207,0.71-2.063v-8.936h3.452v15.129
		h-3.452V40.934z"/>
	<path style="fill:#F58025;" d="M182.346,41.916c-0.497,0.114-0.897,0.187-1.202,0.22c-0.304,0.034-0.649,0.05-1.032,0.05
		c-1.218,0-2.15-0.428-2.793-1.285c-0.643-0.858-0.964-2.099-0.964-3.724v-6.871h-1.524v-3.451h1.524v-2.471l3.453-1.93v4.401h2.606
		v3.451h-2.606v5.855c0,1.062,0.095,1.75,0.288,2.066c0.191,0.316,0.535,0.474,1.032,0.474c0.112,0,0.259-0.027,0.44-0.085
		c0.181-0.056,0.384-0.118,0.609-0.185l-0.033,0.034c0.045-0.045,0.175-0.106,0.389-0.186c0.214-0.079,0.345-0.13,0.389-0.154
		L182.346,41.916z"/>
	<path style="fill:#F58025;" d="M123.06,36.478c0.659,1.014,1.307,1.722,1.944,2.119c0.637,0.399,1.388,0.598,2.255,0.598
		c1.04,0,1.851-0.259,2.432-0.774c0.58-0.515,0.871-1.124,0.871-1.827c0-0.614-0.229-1.379-0.689-1.846
		c-0.468-0.468-1.513-0.919-3.133-1.353c-2.21-0.58-3.792-1.291-4.744-2.131c-1.187-1.057-1.781-2.144-1.781-3.703
		c0-1.673,0.594-3.057,1.781-4.153c1.188-1.097,2.816-1.644,4.888-1.644c1.178,0,2.23,0.196,3.152,0.59
		c0.923,0.395,1.704,0.901,2.346,1.514c0.416,0.408,0.832,0.967,1.248,1.678l-3.276,1.338c-0.555-0.788-1.122-1.364-1.702-1.728
		c-0.581-0.364-1.227-0.546-1.938-0.546c-0.874,0-1.575,0.244-2.1,0.734c-0.523,0.49-0.786,1.081-0.786,1.774
		c0,0.554,0.217,1.031,0.65,1.429c0.424,0.399,1.489,0.811,3.197,1.236c1.708,0.423,3.001,0.918,3.881,1.481
		c0.88,0.563,1.54,1.296,1.977,2.198c0.437,0.901,0.656,1.829,0.656,2.781c0,1.006-0.282,2.016-0.844,3.03
		c-0.564,1.013-1.4,1.793-2.51,2.339c-1.109,0.546-2.383,0.819-3.821,0.819c-1.361,0-2.541-0.229-3.542-0.683
		c-1.001-0.455-1.849-1.068-2.542-1.84c-0.45-0.493-0.906-1.183-1.366-2.067L123.06,36.478z"/>
</g>
<g>
	<g>
		<path style="fill:#695E4A;" d="M68.49,41.645h-3.08V25.67h-4.941v-2.776h12.896v2.776H68.49V41.645z"/>
		<path style="fill:#695E4A;" d="M83.083,32.641c0-0.947-0.248-1.652-0.745-2.115c-0.496-0.463-1.106-0.694-1.828-0.694
			c-0.316,0-0.626,0.068-0.93,0.203c-0.305,0.136-0.576,0.334-0.812,0.593c-0.237,0.26-0.429,0.559-0.576,0.896
			c-0.147,0.339-0.22,0.711-0.22,1.117v9.004h-2.775V24.078l2.775-1.758v6.904c0.226-0.61,0.626-1.123,1.202-1.541
			c0.576-0.417,1.337-0.626,2.285-0.626c0.609,0,1.185,0.131,1.726,0.388c0.542,0.261,1.01,0.622,1.405,1.085
			c0.394,0.463,0.705,1.02,0.931,1.675c0.225,0.656,0.339,1.366,0.339,2.132v9.309h-2.776V32.641z"/>
		<path style="fill:#695E4A;" d="M88.465,27.192h2.775v14.454h-2.775V27.192z"/>
		<path style="fill:#695E4A;" d="M102.342,32.701c0-0.945-0.215-1.658-0.643-2.143c-0.429-0.483-1.027-0.726-1.793-0.726
			c-0.768,0-1.405,0.242-1.913,0.726c-0.508,0.484-0.762,1.198-0.762,2.143v8.944h-2.775V27.192h2.775v1.818
			c0.339-0.662,0.818-1.153,1.439-1.473c0.62-0.32,1.348-0.48,2.183-0.48c1.286,0,2.319,0.457,3.097,1.372
			c0.778,0.913,1.168,2.147,1.168,3.706v9.512h-2.775V32.701z"/>
		<path style="fill:#695E4A;" d="M111.891,34.707l-1.557,1.928v5.011h-2.776V23.977l2.776-1.658v10.357l3.893-4.84h3.554
			l-3.926,4.772l4.468,9.038h-3.181L111.891,34.707z"/>
	</g>
	<path style="fill:#695E4A;" d="M89.852,25.703c-0.474,0-0.853-0.181-1.134-0.541c-0.283-0.361-0.423-0.802-0.423-1.321
		c0-0.541,0.135-0.991,0.406-1.353c0.271-0.361,0.654-0.542,1.151-0.542c0.428,0,0.795,0.181,1.1,0.542
		c0.304,0.362,0.456,0.812,0.456,1.353c0,0.519-0.158,0.96-0.474,1.321C90.619,25.522,90.259,25.703,89.852,25.703z"/>
</g>
</svg>
