<?xml version="1.0" encoding="UTF-8"?>
<svg viewBox="0 0 22 22" version="1.1" xmlns="http://www.w3.org/2000/svg" xmlns:xlink="http://www.w3.org/1999/xlink">
    <!-- Generator: sketchtool 61.2 (101010) - https://sketch.com -->
    <title>30C3989E-4EDA-41C0-902D-5FCF3BCA03AE</title>
    <desc>Created with sketchtool.</desc>
    <g id="Page-1" stroke="none" stroke-width="1" fill="none" fill-rule="evenodd">
        <g id="wonderlab-landing-5" transform="translate(-369.000000, -1267.000000)" fill="#000000">
            <g id="feature" transform="translate(101.000000, 533.000000)">
                <g id="Group-3">
                    <g id="Group-2" transform="translate(0.000000, 533.000000)">
                        <g id="Group-9">
                            <path d="M290,223 L268,223 L268,201 L290,201 L290,223 Z M286.305833,217.82175 L286.305833,217.575167 L285.16275,216.453167 C285.061917,216.376167 285.0115,216.249667 285.032583,216.124083 L285.032583,207.875917 C285.0115,207.750333 285.061917,207.623833 285.16275,207.546833 L286.333333,206.424833 L286.333333,206.17825 L282.279833,206.17825 L279.3905,213.386 L276.103333,206.17825 L271.851833,206.17825 L271.851833,206.424833 L273.221333,208.073917 C273.355167,208.195833 273.423917,208.373667 273.405583,208.553333 L273.405583,215.036 C273.445917,215.26975 273.371667,215.509 273.207583,215.6795 L271.666667,217.547667 L271.666667,217.79425 L276.0355,217.79425 L276.0355,217.547667 L274.494583,215.6795 C274.328667,215.509 274.25075,215.271583 274.281917,215.036 L274.281917,209.429667 L278.116333,217.79425 L278.561833,217.79425 L281.855417,209.429667 L281.855417,216.096583 C281.855417,216.274417 281.855417,216.30925 281.739,216.425667 L280.554667,217.575167 L280.554667,217.82175 L286.305833,217.82175 L286.305833,217.82175 Z" id="medium-icon-vector"></path>
                        </g>
                    </g>
                </g>
            </g>
        </g>
    </g>
</svg>