<?xml version="1.0" encoding="UTF-8"?>
<svg width="120px" height="20px" viewBox="0 0 120 20" version="1.1" xmlns="http://www.w3.org/2000/svg" xmlns:xlink="http://www.w3.org/1999/xlink">
    <!-- Generator: sketchtool 61.2 (101010) - https://sketch.com -->
    <title>9394B49E-97A0-4678-B2AB-4C8255AEC959</title>
    <desc>Created with sketchtool.</desc>
    <g id="Page-1" stroke="none" stroke-width="1" fill="none" fill-rule="evenodd">
        <g id="wonderlab-landing-5" transform="translate(-103.000000, -33.000000)" fill="#67889E" fill-rule="nonzero">
            <g id="hero">
                <g id="nav" transform="translate(103.000000, 0.000000)">
                    <g id="thinkshout-workmark_white" transform="translate(0.000000, 33.000000)">
                        <path d="M79.2096774,5.32258065 C77.1774194,5.32258065 75.9435484,6.45967742 75.7983871,6.67741935 L75.7983871,0.14516129 L72.9677419,1.69354839 L72.9677419,18.9435484 L75.7741935,18.9435484 L75.7741935,11.0322581 C75.7741935,9.29032258 76.3064516,8.03225806 78.0725806,8.03225806 C79.8387097,8.03225806 80.3709677,9.24193548 80.3709677,11.0564516 L80.3709677,18.9435484 L83.1774194,18.9435484 C83.1774194,18.9435484 83.1774194,11.6129032 83.1774194,9.58064516 C83.2016129,7.08870968 81.9435484,5.32258065 79.2096774,5.32258065 Z" id="Path"></path>
                        <path d="M64.6451613,1.40322581 C68.7096774,1.40322581 70.0887097,4.66935484 70.0887097,4.66935484 L67.8145161,5.90322581 C67.8145161,5.90322581 66.9435484,3.91935484 64.6209677,3.91935484 C62.6612903,3.91935484 61.6935484,5.03225806 61.6935484,6.12096774 C61.6935484,10.0403226 70.6935484,7.57258065 70.6935484,13.8145161 C70.6935484,16.5241935 68.4193548,19.1854839 64.4758065,19.1854839 C61.4758065,19.1854839 59.1774194,16.9112903 58.3064516,15.5564516 L61.0403226,14.1774194 C61.0403226,14.1774194 62.4435484,16.3548387 64.6935484,16.3548387 C66.4354839,16.3548387 67.5967742,15.5080645 67.5967742,13.9596774 C67.5967742,9.99193548 58.6209677,12.6290323 58.6209677,6.16935484 C58.6209677,3.31451613 61.3548387,1.40322581 64.6451613,1.40322581 Z" id="Path"></path>
                        <polygon id="Path" points="11.9032258 1.66935484 0.193548387 1.66935484 0.193548387 4.23387097 4.47580645 4.23387097 4.47580645 18.9193548 7.59677419 18.9193548 7.59677419 4.23387097 11.9032258 4.23387097"></polygon>
                        <rect id="Rectangle" x="27.1693548" y="5.54032258" width="2.80645161" height="13.3790323"></rect>
                        <ellipse id="Oval" cx="28.5967742" cy="2.49193548" rx="1.62096774" ry="1.69354839"></ellipse>
                        <polygon id="Path" points="53.6370968 18.9193548 56.5645161 18.9193548 52.4032258 10.4516129 52.4032258 10.4516129 56.3467742 5.54032258 52.983871 5.54032258 49.1612903 10.4032258 49.1612903 0.193548387 46.3548387 1.69354839 46.3548387 18.9193548 49.1612903 18.9193548 49.1612903 14.4677419 50.6370968 12.6774194"></polygon>
                        <path d="M117.266129,8.32258065 L119.782258,8.32258065 L119.782258,5.54032258 L117.266129,5.54032258 L117.266129,0.169354839 L114.41129,1.69354839 L114.41129,5.56451613 L112.524194,5.56451613 L112.524194,8.32258065 L114.41129,8.32258065 L114.41129,15.75 C114.41129,18.1209677 115.330645,19.1854839 117.072581,19.1854839 C118.451613,19.1854839 119.370968,18.7258065 119.854839,18.483871 L119.854839,15.8467742 C119.854839,15.8467742 118.935484,16.5241935 118.306452,16.5241935 C117.653226,16.5241935 117.314516,15.9193548 117.314516,14.7096774 C117.266129,14.5403226 117.266129,8.32258065 117.266129,8.32258065 Z" id="Path"></path>
                        <path d="M20.1532258,5.2983871 C18.1209677,5.2983871 16.9596774,6.60483871 16.7177419,6.75 L16.6935484,6.75 L16.6935484,0.169354839 L13.8870968,1.69354839 L13.8870968,18.9193548 L16.6935484,18.9193548 L16.6935484,11.1774194 C16.6935484,9.50806452 17.2258065,8.17741935 18.9919355,8.17741935 C20.7580645,8.17741935 21.2903226,9.38709677 21.2903226,11.2016129 L21.2903226,18.9193548 L24.0967742,18.9193548 C24.0967742,18.9193548 24.0967742,11.733871 24.0967742,9.72580645 C24.1209677,7.20967742 22.8870968,5.2983871 20.1532258,5.2983871 Z" id="Path"></path>
                        <path d="M39.2177419,5.2983871 C37.1854839,5.2983871 36.0241935,6.58064516 35.7096774,6.82258065 L35.7096774,6.84677419 L35.7096774,5.56451613 L33.0483871,5.56451613 L33.0483871,18.9193548 L35.7096774,18.9193548 L35.7096774,11.1774194 C35.7096774,9.43548387 36.3145161,8.17741935 38.0806452,8.17741935 C39.8467742,8.17741935 40.4516129,9.38709677 40.4516129,11.2016129 L40.4516129,18.9193548 L43.2580645,18.9193548 C43.2580645,18.9193548 43.2580645,11.733871 43.2580645,9.72580645 C43.2822581,7.23387097 41.9516129,5.2983871 39.2177419,5.2983871 Z" id="Path"></path>
                        <path d="M107.419355,5.54032258 L107.419355,13.2580645 L107.419355,13.233871 C107.419355,15.0241935 106.887097,16.233871 105.120968,16.233871 C103.354839,16.233871 102.822581,15.0483871 102.822581,13.233871 L102.822581,5.54032258 L100.016129,5.54032258 C100.016129,5.54032258 100.016129,12.7016129 100.016129,14.733871 C100.016129,17.2258065 101.25,19.1854839 103.983871,19.1854839 C106.016129,19.1854839 107.298387,17.8548387 107.443548,17.6129032 L107.443548,18.9193548 L110.25,18.9193548 L110.25,5.54032258 L107.419355,5.54032258 Z" id="Path"></path>
                        <path d="M91.5967742,5.2983871 C87.3870968,5.2983871 85.5,8.25 85.5,12.2177419 C85.5,16.1854839 87.4112903,19.1854839 91.5967742,19.1854839 C95.7822581,19.1854839 97.6935484,16.0645161 97.6935484,12.2177419 C97.6935484,8.37096774 95.8306452,5.2983871 91.5967742,5.2983871 Z M91.5967742,16.5241935 C89.2983871,16.5241935 88.233871,14.6129032 88.233871,12.2419355 C88.233871,9.87096774 89.2741935,7.98387097 91.5967742,7.98387097 C93.9193548,7.98387097 94.9596774,9.87096774 94.9596774,12.2419355 C94.9596774,14.6129032 93.8951613,16.5241935 91.5967742,16.5241935 Z" id="Shape"></path>
                    </g>
                </g>
            </g>
        </g>
    </g>
</svg>