<?xml version="1.0" encoding="UTF-8"?>
<svg viewBox="0 0 22 19" version="1.1" xmlns="http://www.w3.org/2000/svg" xmlns:xlink="http://www.w3.org/1999/xlink">
    <!-- Generator: sketchtool 61.2 (101010) - https://sketch.com -->
    <title>66E496EF-4873-458E-9AB8-278120A60F8F</title>
    <desc>Created with sketchtool.</desc>
    <g id="Page-1" stroke="none" stroke-width="1" fill="none" fill-rule="evenodd">
        <g id="wonderlab-detail" transform="translate(-888.000000, -957.000000)" fill="#252526" fill-rule="nonzero">
            <g id="feature" transform="translate(103.000000, 293.000000)">
                <g id="Group-3">
                    <g id="Group-2" transform="translate(213.000000, 533.000000)">
                        <g id="Group-9">
                            <g id="Group-4" transform="translate(175.000000, 126.000000)">
                                <path d="M419,7.36458333 C418.190583,7.72391667 417.320667,7.96591667 416.407667,8.075 C417.339917,7.51675 418.055833,6.63216667 418.39225,5.578 C417.5205,6.095 416.554333,6.47083333 415.525833,6.67341667 C414.703583,5.79616667 413.529333,5.248 412.231333,5.248 C409.31725,5.248 407.175917,7.96683333 407.834083,10.78925 C404.084,10.6013333 400.758333,8.80466667 398.53175,6.07391667 C397.34925,8.1025 397.9185,10.75625 399.927833,12.1000833 C399.189,12.07625 398.492333,11.8736667 397.884583,11.5354167 C397.835083,13.6263333 399.333833,15.5825 401.5045,16.0179167 C400.86925,16.19025 400.1735,16.2305833 399.465833,16.0949167 C400.039667,17.8879167 401.706167,19.1923333 403.6825,19.229 C401.785,20.71675 399.394333,21.3813333 397,21.099 C398.997417,22.3795833 401.370667,23.1266667 403.919,23.1266667 C412.299167,23.1266667 417.03375,16.0490833 416.74775,9.70116667 C417.629583,9.06408333 418.395,8.26933333 419,7.36458333 Z" id="Path"></path>
                            </g>
                        </g>
                    </g>
                </g>
            </g>
        </g>
    </g>
</svg>