<?xml version="1.0" encoding="UTF-8"?>
<svg width="200px" height="143px" viewBox="0 0 200 143" version="1.1" xmlns="http://www.w3.org/2000/svg" xmlns:xlink="http://www.w3.org/1999/xlink">
    <!-- Generator: sketchtool 61.2 (101010) - https://sketch.com -->
    <title>A9CEAE7F-781A-4B32-95C5-8EEE553A882B</title>
    <desc>Created with sketchtool.</desc>
    <g id="Page-1" stroke="none" stroke-width="1" fill="none" fill-rule="evenodd">
        <g id="wonderlab-landing-5" transform="translate(-634.000000, -150.000000)" fill="#FFFFFF" fill-rule="nonzero">
            <g id="hero">
                <g id="WonderLab_logo_white_notag" transform="translate(634.000000, 150.000000)">
                    <polygon id="Path" points="25.1181102 26.1417323 18.7401575 45.1968504 18.2677165 45.1968504 12.8346457 30 7.4015748 45.1968504 6.92913386 45.1968504 0.551181102 26.1417323 2.44094488 26.1417323 7.32283465 41.3385827 12.6771654 26.0629921 13.1496063 26.0629921 18.503937 41.2598425 23.3858268 26.1417323 25.1181102 26.1417323"></polygon>
                    <polygon id="Path" points="94.2519685 26.1417323 94.2519685 45.1968504 93.7795276 45.1968504 81.3385827 29.9212598 81.3385827 44.8818898 79.6850394 44.8818898 79.6850394 25.8267717 80.1574803 25.8267717 92.5984252 41.1023622 92.5984252 26.0629921 94.2519685 26.0629921"></polygon>
                    <path d="M125.03937,27.1653543 C126.535433,27.8740157 127.716535,28.976378 128.582677,30.3149606 C129.448819,31.6535433 129.84252,33.3858268 129.84252,35.2755906 C129.84252,37.2440945 129.448819,38.8976378 128.582677,40.3149606 C127.716535,41.7322835 126.535433,42.8346457 125.03937,43.6220472 C123.543307,44.4094488 121.811024,44.8031496 119.84252,44.8031496 L115.11811,44.8031496 L115.11811,26.0629921 L119.84252,26.0629921 C121.811024,26.1417323 123.543307,26.4566929 125.03937,27.1653543 Z M124.173228,42.3622047 C125.433071,41.7322835 126.377953,40.8661417 127.086614,39.6850394 C127.795276,38.503937 128.110236,37.0866142 128.110236,35.4330709 C128.110236,33.7795276 127.795276,32.3622047 127.086614,31.2598425 C126.377953,30.0787402 125.433071,29.2125984 124.173228,28.6614173 C122.913386,28.1102362 121.496063,27.7952756 119.84252,27.7952756 L116.692913,27.7952756 L116.692913,43.3858268 L119.84252,43.3858268 C121.496063,43.2283465 122.913386,42.992126 124.173228,42.3622047 Z" id="Shape"></path>
                    <polygon id="Path" points="160.472441 43.2283465 160.472441 44.8031496 149.370079 44.8031496 149.370079 26.0629921 160.15748 26.0629921 160.15748 27.6377953 151.023622 27.6377953 151.023622 34.4094488 159.84252 34.4094488 159.84252 35.984252 151.102362 35.984252 151.102362 43.2283465"></polygon>
                    <path d="M190.23622,44.8818898 L182.125984,35.3543307 L182.125984,44.8818898 L180.472441,44.8818898 L180.472441,26.1417323 L185.669291,26.1417323 C187.007874,26.1417323 188.110236,26.3779528 189.055118,26.7716535 C190,27.1653543 190.708661,27.7952756 191.259843,28.503937 C191.811024,29.2125984 192.047244,30.1574803 192.047244,31.2598425 C192.047244,32.9133858 191.496063,34.1732283 190.314961,35.0393701 C189.133858,35.9055118 187.401575,36.3779528 185.11811,36.3779528 L192.519685,44.8818898 L190.23622,44.8818898 Z M184.80315,34.8818898 C186.692913,34.8818898 188.031496,34.5669291 188.976378,34.015748 C189.84252,33.3858268 190.314961,32.519685 190.314961,31.2598425 C190.314961,30.0787402 189.92126,29.2125984 189.133858,28.5826772 C188.346457,27.9527559 187.165354,27.7165354 185.669291,27.7165354 L182.204724,27.7165354 L182.204724,34.8818898 L184.80315,34.8818898 Z" id="Shape"></path>
                    <polygon id="Path" points="45.6692913 127.086614 45.6692913 142.598425 0.236220472 142.598425 0.236220472 62.4409449 17.480315 62.4409449 17.480315 127.086614"></polygon>
                    <path d="M196.141732,107.637795 C198.267717,110.944882 199.370079,114.88189 199.370079,119.448819 C199.370079,124.409449 198.188976,128.661417 195.826772,132.125984 C193.464567,135.590551 190.15748,138.188976 185.905512,139.92126 C181.653543,141.653543 176.614173,142.519685 170.944882,142.519685 L139.92126,142.519685 L139.92126,62.4409449 L167.637795,62.4409449 C173.622047,62.4409449 178.740157,63.2283465 183.070866,64.8818898 C187.322835,66.5354331 190.551181,68.8976378 192.755906,71.9685039 C194.96063,75.0393701 196.062992,78.8188976 196.062992,83.1496063 C196.062992,91.4173228 192.677165,97.0866142 185.984252,100.314961 C190.629921,101.889764 194.015748,104.330709 196.141732,107.637795 Z" id="Path"></path>
                    <path d="M56.1417323,27.3228346 C55.984252,27.2440945 55.8267717,27.0866142 55.6692913,27.007874 C54.2519685,26.2204724 52.7559055,25.8267717 51.1023622,25.8267717 C49.4488189,25.8267717 47.8740157,26.2204724 46.5354331,27.007874 C45.1968504,27.7952756 44.015748,28.976378 43.2283465,30.4724409 C42.4409449,31.9685039 42.0472441,33.6220472 42.0472441,35.511811 C42.0472441,37.4015748 42.4409449,39.0551181 43.2283465,40.5511811 C44.015748,42.0472441 45.1181102,43.1496063 46.5354331,43.9370079 C47.9527559,44.7244094 49.4488189,45.1181102 51.1023622,45.1181102 C52.7559055,45.1181102 54.3307087,44.7244094 55.6692913,43.9370079 C55.7480315,43.9370079 55.7480315,43.8582677 55.8267717,43.7795276 C58.8188976,42.2047244 60.9448819,39.0551181 60.9448819,35.4330709 C60.9448819,31.9685039 58.976378,28.976378 56.1417323,27.3228346 Z M46.4566929,35.511811 C46.4566929,36.0629921 46.0629921,36.4566929 45.511811,36.4566929 C44.9606299,36.4566929 44.5669291,36.0629921 44.5669291,35.511811 C44.5669291,31.496063 47.7952756,28.2677165 51.8110236,28.2677165 C52.3622047,28.2677165 52.7559055,28.6614173 52.7559055,29.2125984 C52.7559055,29.7637795 52.3622047,30.1574803 51.8110236,30.1574803 C48.8976378,30.1574803 46.4566929,32.5984252 46.4566929,35.511811 Z" id="Shape"></path>
                    <circle id="Oval" cx="62.5984252" cy="1.41732283" r="1.41732283"></circle>
                    <path d="M62.9133858,14.5669291 C60.6299213,14.5669291 58.7401575,16.4566929 58.7401575,18.7401575 C58.7401575,21.023622 60.6299213,22.9133858 62.9133858,22.9133858 C65.1968504,22.9133858 67.0866142,21.023622 67.0866142,18.7401575 C67.0866142,16.4566929 65.2755906,14.5669291 62.9133858,14.5669291 Z M61.8110236,16.6141732 C61.2598425,16.8503937 60.7874016,17.4015748 60.6299213,18.0314961 C60.5511811,18.1889764 60.3937008,18.3464567 60.2362205,18.3464567 C60.2362205,18.3464567 60.1574803,18.3464567 60.1574803,18.3464567 C59.9212598,18.2677165 59.8425197,18.1102362 59.9212598,17.8740157 C60.1574803,17.007874 60.7874016,16.3779528 61.5748031,15.984252 C61.7322835,15.9055118 61.9685039,15.984252 62.0472441,16.1417323 C62.0472441,16.2992126 61.9685039,16.5354331 61.8110236,16.6141732 Z" id="Shape"></path>
                    <path d="M56.2992126,5.90551181 C54.9606299,5.90551181 53.9370079,6.92913386 53.9370079,8.26771654 C53.9370079,9.60629921 54.9606299,10.6299213 56.2992126,10.6299213 C57.6377953,10.6299213 58.6614173,9.60629921 58.6614173,8.26771654 C58.6614173,6.92913386 57.5590551,5.90551181 56.2992126,5.90551181 Z M55.2755906,7.71653543 C55.1181102,7.71653543 54.9606299,7.55905512 54.9606299,7.4015748 C54.9606299,7.24409449 55.1181102,7.08661417 55.2755906,7.08661417 C55.4330709,7.08661417 55.5905512,7.24409449 55.5905512,7.4015748 C55.5905512,7.55905512 55.511811,7.71653543 55.2755906,7.71653543 Z" id="Shape"></path>
                    <path d="M74.8031496,55.9055118 C73.6220472,55.9055118 72.7559055,56.8503937 72.7559055,57.9527559 C72.7559055,59.0551181 73.7007874,60 74.8031496,60 C75.9055118,60 76.8503937,59.0551181 76.8503937,57.9527559 C76.8503937,56.8503937 75.9055118,55.9055118 74.8031496,55.9055118 Z M73.9370079,57.5590551 C73.7795276,57.5590551 73.6220472,57.4015748 73.6220472,57.2440945 C73.6220472,57.0866142 73.7795276,56.9291339 73.9370079,56.9291339 C74.0944882,56.9291339 74.2519685,57.0866142 74.2519685,57.2440945 C74.2519685,57.4015748 74.0944882,57.5590551 73.9370079,57.5590551 Z" id="Shape"></path>
                    <path d="M62.9133858,49.7637795 C61.2598425,49.7637795 59.8425197,51.1023622 59.8425197,52.8346457 C59.8425197,54.488189 61.1811024,55.9055118 62.9133858,55.9055118 C64.5669291,55.9055118 65.984252,54.5669291 65.984252,52.8346457 C65.984252,51.1023622 64.6456693,49.7637795 62.9133858,49.7637795 Z M62.1259843,51.2598425 C61.7322835,51.4173228 61.3385827,51.8110236 61.2598425,52.2834646 C61.2598425,52.4409449 61.1023622,52.519685 61.023622,52.519685 C61.023622,52.519685 60.9448819,52.519685 60.9448819,52.519685 C60.7874016,52.4409449 60.7086614,52.2834646 60.7874016,52.2047244 C60.9448819,51.5748031 61.4173228,51.1023622 61.9685039,50.7874016 C62.1259843,50.7086614 62.2834646,50.7874016 62.3622047,50.9448819 C62.3622047,51.023622 62.2834646,51.1811024 62.1259843,51.2598425 Z" id="Shape"></path>
                    <path d="M97.4015748,72.519685 L99.5275591,72.519685 C102.283465,72.519685 104.566929,70.2362205 104.566929,67.480315 L104.566929,67.480315 C104.566929,64.7244094 102.283465,62.4409449 99.5275591,62.4409449 L82.519685,62.4409449 C79.7637795,62.4409449 77.480315,64.7244094 77.480315,67.480315 L77.480315,67.480315 C77.480315,70.2362205 79.7637795,72.519685 82.519685,72.519685 L84.7244094,72.519685 L74.488189,95.0393701 L90.1574803,95.0393701 L90.1574803,97.6377953 L73.3070866,97.6377953 L71.6535433,101.259843 L80.3149606,101.259843 L80.3149606,103.858268 L70.4724409,103.858268 L68.8188976,107.480315 L90.1574803,107.480315 L90.1574803,110.07874 L67.6377953,110.07874 L52.7559055,142.598425 L71.1811024,142.598425 L76.8503937,128.818898 L104.724409,128.818898 L110.472441,142.598425 L129.370079,142.598425 L97.4015748,72.519685 Z" id="Path"></path>
                </g>
            </g>
        </g>
    </g>
</svg>